<?xml version="1.0" encoding="UTF-8"?>
<svg viewBox="0 0 1227 815" xmlns="http://www.w3.org/2000/svg">
 <g fill-rule="evenodd" stroke-width=".5">
  <path d="m0 407.5v-407.5h1227v815h-32l-0.2-1-0.3-1-0.3-0.2-0.2-0.3-0.2-0.3-0.3-0.2-0.3-0.2-0.2-0.3-0.2-0.3-0.3-0.2-0.5-1-0.5-1-0.3-0.2-0.2-0.3-0.2-0.3q-0.3-0.2-9.3-10.7t-60.3-70.5l-51.2-60-0.2-0.5q-0.3-0.5-0.6-0.5h-0.2l-0.2-0.5q-0.3-0.5-0.6-0.7l-0.2-0.3-0.2-0.3-0.3-0.2-0.3-0.2-0.2-0.3-0.2-0.3-0.3-0.2-0.3-0.2-0.2-0.3-0.2-0.3-0.3-0.2-0.3-0.2q-0.2-0.3-34.7-40.3t-35.5-43.3l-1-3.2 0.2-1.5q0.3-1.5 17.8-62.5t17.8-65.2q0.2-4.3 0.7-10l0.5-5.8-0.2-1q-0.3-1-0.6-1.2-0.2-0.3-44.2-16.8t-48-16.8q-4-0.2-4 0.8t-1 1-3.2 8q-2.3 8-2.8 14.5t-16.2 66l-15.8 59.5h-0.5l-0.3 1.5-0.2 1.5-0.5 0.2q-0.5 0.3-0.5 0.6v0.2h-1q-1 0-1.2 1.5-0.3 1.5-118.6-1.3l-118.2-2.7v-0.5l0.2-4q0.3-4 3.8-17.5t4-12.5 1.2-2.8q0.8-3.7 1.6-5.4 0.7-1.8 2.2-5.3t6.2-7.7q4.8-4.3 3-18l-1.7-13.8-0.5-1.5-0.5-1.5-0.5-1-0.5-1-0.3-0.2-0.2-0.3-0.2-0.3-0.3-0.2-0.5 1-0.5 1-0.5 1.5-0.5 1.5-2 6q-2 6-2.5 7l-0.5 1-0.3 1-0.2 1-2-0.2-2-0.3-1.5-0.5-1.5-0.5-1-0.3-1-0.2 0.2-1.5 0.3-1.5 0.3 0.2 0.2 0.3 1 0.3 1 0.2 0.2-2q0.3-2 0.6-3 0.2-1-0.8-1t-1.2-1q-0.3-1-0.6-3.8-0.2-2.7 1-6 1.3-3.2 2.6-4.4 1.2-1.3 7.4-6l6.3-4.8v-6l-0.5-1q-0.5-1-8-6t-8.5-22-3.5-37-4.5-28-1.7-9.5l0.2-1.5h0.2q0.3 0 0.6-0.5l0.2-0.5h0.2q0.3 0 0.6-0.5l0.2-0.5-0.8-4.5q-0.7-4.5 1.3-8.5t3.3-9.8q1.2-5.7 2.7-7.2t6-2 6-1l1.5-0.5 0.2-0.3 0.3-0.2 0.3-0.2 0.2-0.3 0.2-0.3 0.3-0.2 0.3-0.2 0.2-0.3 1-0.5 1-0.5 1-0.5 1-0.5v-0.5h0.5l0.3-0.2q0.2-0.3 1.2-0.6 1-0.2 1-1.7t1-1.7q1-0.3 0.8-1-0.3-0.8 0.2-3.3t-0.2-1.7q-0.8 0.7-1.6 0-0.7-0.8 0-1.3 0.8-0.5-0.4-9-1.3-8.5-4.6-14.5-3.2-6-4.4-6.5-1.3-0.5-0.6-1.3 0.8-0.7-3.2-5.7t-8.2-12.7q-4.3-7.8-7.8-10.8t-5.2-3.8q-1.8-0.7-7.3-5.2t-10-6-8-3.5-13.5-5.5-16.5-4.5-11.5-1-10 0.5-12 3.5-17 7-10.5 5.7q-0.5 1.8-1.7 2.3-1.3 0.5-2 1.3-0.8 0.7-10.6 9.4-9.7 8.8-13.2 14.3t-10.8 28.5l-7.2 23-0.5 0.2q-0.5 0.3-0.5 0.6v0.2h-0.2q-0.3 0-3.8 4t-6 8-2.2 5.5q0.2 1.5-4.3 1.3-4.5-0.3-15.3 6.4-10.7 6.8-11 10.3-0.2 3.5-1.2 3.7-1 0.3-4.5 4-3.5 3.8-6 4-2.5 0.3-5.5-2l-3-2.2-0.2-0.5q-0.3-0.5-1-1l-0.8-0.5-0.5-0.2-0.5-0.3-1-0.3-1-0.2-0.2-0.5q-0.3-0.5-0.6-0.5h-0.2l-0.5-0.2q-0.5-0.3-7-0.3t-10.7 3.3q-4.3 3.2-14.8 9.7t-21.2 13.3q-10.8 6.7-24.3 14.7t-23.5 17.5-20.8 22.8q-10.7 13.2-19.2 30.2l-8.5 17-0.5 1.5-0.5 1.5-0.3 1-0.2 1h-0.5l-6.5 19.5q-6.5 19.5-12 46t-6 29l-0.5 2.5-0.3 1.5-0.2 1.5-1.5-0.2-1.5-0.3-0.2-0.3-0.3-0.2-0.3-0.2-0.2-0.3-0.2-0.3-0.3-0.2-0.3-0.2-0.2-0.3-0.2-0.3q-0.3-0.2-8.8-5.7t-19.2-9.3q-10.8-3.7-26.3-4.2t-25.5 2-26.5 10.5-29 20.5l-12.5 12.5-0.2 0.3-0.3 0.2-0.5 1-0.5 1-0.3 0.5-0.2 0.5-4.8 8q-4.7 8-8 17-3.2 9-2 8.5 1.3-0.5-0.7 13t-2.5 16.5l-0.5 3-0.3 0.2-0.2 0.3h-1v-7.5h-2l-0.2 3-0.3 3-0.5 7q-0.5 7 1 27t6 37 10 28 11.8 16.8q6.2 5.7 11.2 7.2t15.5 1 19.3-4.2q8.7-3.8 14.4-8 5.8-4.3 6.8-4.8l1-0.5 0.2-0.3 0.3-0.2 0.3-0.2 0.2-0.3 1-0.5 1-0.5 1-0.3 1-0.2 0.2 2.5 0.3 2.5h0.5v2h-0.5l-0.5 9q-0.5 9-4 12.5t-4.5 5.5-1 4.5v2.5l1.3 1.8q1.2 1.7 5.7 2 4.5 0.2 5.7 3.2 1.3 3 1.6 4l0.2 1v0.8q0 0.7 0.2 1 0.3 0.2 0.8 2.7l0.5 2.5 0.3 0.2 0.2 0.3 0.2 0.3 0.3 0.2v3l-0.3 0.2-0.2 0.3 0.2 0.3 0.3 0.2 0.3 0.5 0.2 0.5h-166v-407.5z" fill="#fff" stroke="#fff"/>
  <g fill="#fefefe" stroke="#fefefe">
   <path d="m541.8 529l0.2-1 1 0.2 1 0.3 1 0.5 1 0.5 27.5 16.5q27.5 16.5 30 17.5t3.5 1.5l1 0.5 0.2 0.3 0.3 0.2v2l-10 16.5q-10 16.5-10.3 17.5l-0.2 1h-0.2q-0.3 0-3.8 5.5t-24.2 10q-20.8 4.5-21 2-0.3-2.5-2.8-7.5t-8.2-9.8q-5.8-4.7-13.3-7l-7.5-2.2v-3l0.2-1.5 0.3-1.5 0.5-1.5q0.5-1.5 0.8-1.5h0.2l0.5-0.2 0.5-0.3 0.2-0.3 0.3-0.2 0.3-0.2 0.2-0.3 0.2-0.3 0.3-0.2 0.3-0.2 0.2-0.3 0.2-0.3 0.3-0.2 0.3-0.2 0.2-0.3 0.2-0.3 0.3-0.2 0.3-0.2 0.2-0.3 0.2-0.3 0.3-0.2 0.3-0.2 0.2-0.3 0.2-0.3 0.3-0.2 0.3-0.2q0.2-0.3 5.2-5.3t10-16.7l5-11.8h0.5l0.5-1.5 0.5-1.5 0.5-1.5 0.5-1.5 0.5-1.5q0.5-1.5 1.5-4.5l1-3 0.3-1z"/>
   <path d="m601.5 385.8l0.5 0.2v0.2q0 0.3 0.5 0.6l0.5 0.2v0.2q0 0.3 0.5 0.6l0.5 0.2v0.2q0 0.3 0.5 0.6l0.5 0.2 2.2 5.5q2.3 5.5 3.3 17.5t0.7 20q-0.2 8-1.2 8h-1l-0.2-1q-0.3-1-4.3 17t-4 22 0.3 7.5l0.2 3.5-1-0.2-1-0.3-1-0.5-1-0.5-0.2-0.3-0.3-0.2-0.3-0.2-0.2-0.3-0.2-0.3-0.3-0.2-0.3-0.2-0.2-0.3-1-0.5q-1-0.5-8-5t-8.8-7.2q-1.7-2.8-8.4-8.3l-6.8-5.5v-0.2q0-0.3-1-0.6l-1-0.2-0.2-0.5q-0.3-0.5-5.6-3.3-5.2-2.7-7-7.4-1.7-4.8-6-30.3l-4.2-25.5 2.5-2.8q2.5-2.7 6.5-2.2t13.5 4.5 19.5 5.5 13.8-0.8q3.7-2.2 5.7-6.2t2.3-3.8q0.2 0.3 0.7 0.6z"/>
  </g>
  <path d="m452 644.8v0.4q0 0.3-0.5 0.6l-0.5 0.2-4.2 10.5q-4.3 10.5-5 16.5-0.8 6 1.7 6t3 1.8q0.5 1.7-1 2-1.5 0.2-1.5 1.2t3.5-0.2q3.5-1.3 3.5-0.3t7 0.5 10.5-2.5 4.5-1.7q1 0.2 1.8 1.7 0.7 1.5 1 0.5 0.2-1 1.7-1t1.5-1.5 2.2-3.5q2.3-2 4.8-6.5t3-5.5l0.5-1 0.5-1 0.5-1 0.5-1 0.5-1 0.3-0.2 0.2-0.3 0.2-0.3 0.3-0.2 0.3-0.2 0.2-0.3 0.2-0.3 0.3-0.2 0.3-0.2 0.2-0.3 0.2-0.3 0.3-0.2v5l-0.3 0.2-0.2 0.3-0.2 0.3-0.3 0.2-0.5 1-0.5 1-0.3 0.2-0.2 0.3-1.5 5.3q-1.5 5.2-0.5 5.2t0.2 3q-0.7 3-0.7 5v2l0.3 0.2 0.2 0.3 0.2 0.3 0.3 0.2 0.3-1q0.2-1 4-0.5 3.7 0.5 4.2 3l0.5 2.5 0.3-0.2q0.2-0.3 0.7-1.6 0.5-1.2 2-1.4 1.5-0.3 2-1.6 0.5-1.2 1.5-1.2h1l-1 2.5q-1 2.5-4 5.3-3 2.7-4 3.2l-1 0.5 4 0.3q4 0.2 3.5 3.4-0.5 3.3-1.5 6.6-1 3.2 0.5 3.2h1.5l0.2 1 0.3 1 0.3-0.2 0.2-0.3 0.2-0.3 0.3-0.2 0.3-0.2q0.2-0.3 3-4l2.7-3.8 0.3-0.2 0.2-0.3 0.2-0.3 0.3-0.2 0.3-0.2 0.2-0.3 0.2-0.3 0.3-0.2 0.3-0.2 0.2-0.3 1.5-0.3 1.5-0.2 0.2-1 0.3-1 2.3-1.2q2.2-1.3 2.4-0.6 0.3 0.8 0 1.8l-0.2 1h-3l-0.2 1.5-0.3 1.5-0.5 1.5-0.5 1.5-2.5 4q-2.5 4-2.8 6.5l-0.2 2.5 1-0.2 1-0.3 0.2-0.3 0.3-0.2 0.3 0.2 0.2 0.3 1 0.5 1 0.5v0.5l-3.2 3q-3.3 3-29.8 44.5t-27 42.5l-0.5 1-0.3 0.2-0.2 0.3-0.2 0.3-0.3 0.2-0.5 1.5-0.5 1.5-0.3 0.2-0.2 0.3-0.2 0.3-0.3 0.2-0.3 0.5-0.2 0.5h-62v-0.5l-2-0.3-2-0.2 0.2-1q0.3-1-0.4-4-0.8-3 0.4-3.5 1.3-0.5 0-1.3-1.2-0.7 0.3-1.4 1.5-0.8 1-5.8t6-7.2q6.5-2.3 7.3-2l0.7 0.2 0.3 0.2 0.2 0.3 1 0.3 1 0.2-0.2-1.5-0.3-1.5-0.5-1-0.5-1-0.3-0.2-0.2-0.3-0.2-0.3-0.3-0.2-0.5-1q-0.5-1-5-5.5t-12.8-9q-8.2-4.5-8.2-3.5t1 1.2q1 0.3-1 0.8l-2 0.5-0.2-0.3-0.3-0.2-0.3-0.2-0.2-0.3-0.2-0.3-0.3-0.2-0.5-1-0.5-1-0.3 0.2-0.2 0.3h-2l-0.2-0.3-0.3-0.2-0.3-0.2-0.2-0.3 0.2-0.3 0.3-0.2 0.3-0.2 0.2-0.3 0.2-0.3 0.3-0.2 0.3 0.2 0.2 0.3 2 0.5 2 0.5 0.2 0.3 0.3 0.2v-3l-0.3 0.2-0.2 0.3h-1l-2-0.5q-2-0.5-23-5l-21-4.5v-2.5l2-0.2 2-0.3-1-0.5-1-0.5-0.2-0.3-0.3-0.2-0.3-0.2q-0.2-0.3 0-0.6l0.3-0.2 0.3-0.2 0.2-0.3 0.2-0.3 0.3-0.2 0.3-0.2 0.2-0.3-0.2-0.3-0.3-0.2-0.3-0.2q-0.2-0.3-2.7 0-2.5 0.2-2.3-4.8 0.3-5-0.7-5t-1-2.5 0.7-3q0.8-0.5 0-2-0.7-1.5 0-2.7 0.8-1.3 1-3 0.3-1.8 1.6-2.6 1.2-0.7-0.3-1-1.5-0.2-1-3.2t1.5-3 1.5-2.5-1.5-2.7l-2-0.3 2-0.3 2-0.2 0.2-1 0.3-1 0.3 0.2 0.2 0.3h1q1 0 2.5 0h1.5l0.2-0.3 0.3-0.2 0.3 0.2 0.2 0.3 1 0.3 1 0.2-0.2-1-0.3-1-0.3-0.2-0.2-0.3-0.2-0.3-0.3-0.2-0.3-0.2-0.2-0.3-0.2-0.3-0.3-0.2-0.3 0.2-0.2 0.3h-0.5q-0.5 0-1.5 0h-1l-0.2 0.3-0.3 0.2-0.3 0.2-0.2 0.3h-1l-0.2-0.3-0.3-0.2v-2l0.3 0.2 0.2 0.3h1l2.5-0.5 2.5-0.5 7-0.3q7-0.2 7.5-1.4 0.5-1.3 3-1.6 2.5-0.2 3.5-2.4 1-2.3 2-2.6 1-0.2 1-1.7v-1.5h2l0.2 1 0.3 1 0.3 0.2 0.2 0.3 0.5 0.3 0.5 0.2v0.2q0 0.3 0.5 0.6l0.5 0.2 5.2 10q5.3 10 5.8 11l0.5 1 0.5 1 0.5 1 0.3 0.2 0.2 0.3 0.2 0.3 0.3 0.2 0.3 0.2 0.2 0.3 0.2 0.3 0.3 0.2 0.3 0.2 0.2 0.3 0.2 0.3 0.3 0.2 0.3 0.2 0.2 0.3 0.2 0.3 0.3 0.2 0.5-3.5q0.5-3.5 1-6.5l0.5-3 0.5-1.5 0.5-1.5 0.3 5.5q0.2 5.5 1.2 5.5t1.2 2l0.3 2 0.5 1.5 0.5 1.5 0.3 0.2 0.2 0.3 1 0.3 1 0.2 0.2-5q0.3-5 3-19.5 2.8-14.5 3.8-14.5t1.5 1.2q0.5 1.3 2.3-4l1.7-5.2 0.5-1 0.5-1 0.5-1 0.5-1v2q0 2-0.3 3l-0.2 1h3l0.2-1q0.3-1 1.3-3.5t2.5 0 10.2-10.3l8.8-12.7 0.2-0.3 0.3-0.2 0.5-1 0.5-1 0.3-0.2 0.2-0.3 1-0.3 1-0.2-0.8 2.5q-0.7 2.5-0.2 3.5l0.5 1 0.3-0.2 0.2-0.3 0.2-0.3 0.3-0.2 0.3-0.2 0.2-0.3 0.2-0.3 0.3-0.2 2.7-2.2q2.8-2.3 7.8-2.8t5-0.2zm48.2 53.4q0.3-0.2 0.6 0 0.2 0.3-0.3 0.3t-0.3-0.3zm-169.2 7.8q0-1 5-0.8l5 0.3-3 0.5-3 0.5-2 0.3q-2 0.2-2-0.8zm170.8 5.2l0.2 0.3 0.2 0.3 0.3 0.2 0.3 0.2 0.2 0.3-1 0.3-1 0.2 0.2-1q0.3-1 0.6-0.8z" fill="#0c0b0d" stroke="#0c0b0d"/>
  <path d="m631.5 601.2l3.5-0.2v0.5l0.2 0.3 0.3 0.2 0.3 0.2 0.2 0.3 0.2 0.3 0.3 0.2 0.3 0.2 0.2 0.3 0.2 0.3 0.3 0.2 0.3 0.2 0.2 0.3 0.2 0.3 0.3 0.2 0.3 0.2 0.2 0.3 5.2 7.7q5.3 7.8 8.8 18.3t3.8 19l0.2 8.5-0.2 2.5q-0.3 2.5-0.8 3.5t-9.8 10.8q-9.2 9.7-17.7 13.2l-8.5 3.5-1.5 0.5-1.5 0.5-1.5 0.3-1.5 0.2v-6l3.8-1q3.7-1 4-1.2 0.2-0.3 1.2-0.8l1-0.5 0.2-0.3 0.3-0.2 0.3-0.2 0.2-0.3 0.2-0.3 0.3-0.2 0.3-0.2 0.2-0.3 0.2-0.3 0.3-0.2v-3l-0.3-0.2-0.2-0.3-1-0.5-1-0.5-1-0.5q-1-0.5-5 0.2l-4 0.8v-3l-0.2-2q-0.3-2-5.3-22t-9-28l-4-8-0.3-0.2-0.2-0.3-0.2-0.3-0.3-0.2-0.3-1-0.2-1 1.5-0.2 1.5-0.3v-0.5l15.5-4.8q15.5-4.7 19-5z" fill="#fefefe" stroke="#fefefe"/>
  <path d="m406 341.8l2 0.2v0.5l2.5 0.5 2.5 0.5 0.2 0.3 0.3 0.2 0.3 0.2 0.2 0.3 9.5 6q9.5 6 11 6.7 1.5 0.8 6.7 8.3 5.3 7.5 11.3 21t6.5 15l0.5 1.5 0.3 0.2 0.2 0.3 0.2 0.3 0.3 0.2 0.3 1 0.2 1 1-0.2 1-0.3-0.2-0.3-0.3-0.2-0.3-0.2-0.2-0.3 0.2-0.3 0.3-0.2v-3l-0.3-0.2-0.2-0.3 1-0.5 1-0.5 0.2-0.3 0.3-0.2 0.3 0.2 0.2 0.3 0.2 0.3 0.3 0.2v-2q0-2-8.5-20.5t-9-26l-0.5-7.5 0.3 0.2 0.2 0.3 0.2 0.3 0.3 0.2 0.5 1.5 0.5 1.5 0.3 0.2 0.2 0.3 0.2 0.3 0.3 0.2 0.5 1 0.5 1 4.5 10q4.5 10 4.8 12 0.2 2 7 6 6.7 4 7.4 4.8 0.8 0.7 1.8 1l1 0.2v2h2v2l-3 0.5q-3 0.5-0.2 6 2.7 5.5 11.2 18.5t11.5 23 2.7 11.2q-0.2 1.3 0 1.6l0.3 0.2 0.3 3 0.2 3-2.2 18.5q-2.3 18.5-2.3 22.5t0.3 16.5l0.2 12.5-1.8 23q-1.7 23-2.2 27l-0.5 4-0.5 1.5-0.5 1.5-0.5 2.5-0.5 2.5-0.3 0.2-0.2 0.3-0.2 0.3-0.3 0.2v-5l0.5-3.5q0.5-3.5 0.5-4t0.7-11l0.8-10.5h-2l-0.2 1.5-0.3 1.5-0.3 1-0.2 1-1 0.2q-1 0.3-2.2 2-1.3 1.8-3 2.6-1.8 0.7-2.6 1.4-0.7 0.8-4 0.6-3.2-0.3-7.2 0.7t-11.5-1-12.5-1.5-5.8 2.8q-0.7 2.2-2.7 8.2l-2 6-0.3 0.2-0.2 0.3-0.2 0.3-0.3 0.2-0.3 0.2-0.2 0.3-0.2 0.3-0.3 0.2-0.3 0.2-0.2 0.3-0.2 0.3-0.3 0.2-0.3 0.2-0.2 0.3-0.2 0.3-0.3 0.2-0.3 0.2-0.2 0.3-0.2 0.3-0.3 0.2-0.3 0.2-0.2 0.3h-3l0.2-0.3 0.3-0.2 0.5-1.5 0.5-1.5 0.3-0.2 0.2-0.3 0.2-0.3 0.3-0.2 0.3-0.2 0.2-0.3 0.2-0.3q0.3-0.2 0.6-2.2l0.2-2-1 0.2-1 0.3-1 0.3-1 0.2-0.2 1-0.3 1-0.3 1-0.2 1-1.5-0.2q-1.5-0.3-7.5 3.2t-11.8 9.2q-5.7 5.8-5 8.6 0.8 2.7-0.4 2-1.3-0.8-3 2.2-1.8 3-0.8 3t1 1-1.2 2q-1.3 1-7.8 7t-6.8 7q-0.2 1-1.2 1.2l-1 0.3h-2l-0.8-0.7q-0.7-0.8-3 0-2.2 0.7-5.2 1.7t-3 4.5-0.2 5.2q-0.3 1.8 0.4 3.6 0.8 1.7-0.2 2-1 0.2-0.5 3.2t1.5 3.2l1 0.3-0.2 0.3-0.3 0.2-0.3 0.2-0.2 0.3 0.2 0.3 0.3 0.2 0.3 0.2 0.2 0.3 0.2 0.3 0.3 0.2 0.3 0.2 0.2 0.3-1 0.5-1 0.5-0.2 0.3-0.3 0.2-0.3 0.2-0.2 0.3h-1l-0.2-0.3-0.3-0.2-0.3-0.2-0.2-0.3-0.2-0.3-0.3-0.2-0.3-0.2-0.2-0.3-1.5-0.5-1.5-0.5-0.2-0.3q-0.3-0.2-2.6-2-2.2-1.7-2.4-3.4-0.3-1.8-2.6-2.8-2.2-1-2.4-2l-0.3-1-0.3-0.2-0.2-0.3-0.2-0.3-0.3-0.2-0.3-0.2-0.2-0.3h-2l-1 0.3-1 0.2-0.2-0.5q-0.3-0.5-0.6-0.5h-0.2l-0.2-1.5q-0.3-1.5-0.8-3t-14.2-51.5l-13.8-50h0.5l0.3 0.2 0.2 0.3 0.2 0.3 0.3 0.2v-3l-0.3-0.2-0.2-0.3 0.2-0.3 0.3-0.2 0.3-0.2 0.2-0.3 0.2-0.3 0.3-0.2 0.3-4.5q0.2-4.5 2.7-4.5t2-4 1.5-3.8q2 0.3 4-0.7t1-2 1.5-4.5 3.3-8.2q0.7-4.8 1.4-5.6 0.8-0.7 0.3-2-0.5-1.2-1.5-1.4-1-0.3-1-1.3t0.2-2.7q0.3-1.8 1.6-1.6 1.2 0.3 0.2-4.4-1-4.8-11.5-13.6-10.5-8.7-11.5-10-1-1.2-2-1.4-1-0.3-3.8-5-2.7-4.8-3.7-8.8l-1-4-0.3-0.2-0.2-0.3 0.2-0.3 0.3-0.2 0.3-1 0.2-1 3-0.2q3-0.3 4-0.6l1-0.2v2l1-0.2 1-0.3-0.2-0.3-0.3-0.2-0.3-0.2-0.2-0.3 0.2-0.3 0.3-0.2 0.3-0.2 0.2-0.3-0.2-0.3-0.3-0.2-0.3-0.2q-0.2-0.3-2.2-1l-2-0.8v-2h1q1 0 1-1t2-1 2.5-6.5-0.5-6.5 0.2-4q1.3-4 2.6-5.2 1.2-1.3 0.2-1.8t0.5-0.8q1.5-0.2 4.5-8.7t4-8.5 1-1 1-1 3-4 3-4 1-1.5 1.5-1.5 1.5-1 1-1 2.5-2.8q1.5-2.7 12-8.7t25.5-11 21-5 8 0.3zm-81.8 176.7q-0.2-2.5 0.8-2.5t0.8 1.5q-0.3 1.5-0.8 2.5t-0.8-1.5zm-6 7q-0.2-1.5 1.3-1.5t1.5 1-1.2 1.5q-1.3 0.5-1.6-1zm114 47.3l-0.2-0.3 1-0.3 1-0.2-0.2 2q-0.3 2-0.8 0.5l-0.5-1.5-0.3-0.2zm-82 68.4q0.3-0.2 0.6 0 0.2 0.3-0.3 0.3t-0.3-0.3z" fill="#1a1b21" stroke="#1a1b21"/>
  <path d="m983.2 500.5l-0.2 2.5h-0.2q-0.3 0-3.8 11t-7.8 16.8q-4.2 5.7-10.2 9.2t-9.8 9.8l-3.7 6.2-0.3-0.2-0.2-0.3-1-0.5-1-0.5-0.2-0.3-0.3-0.2-0.3-0.2-0.2-0.3-0.2-0.3-0.3-0.2-0.3-0.2q-0.2-0.3-2.7-2-2.5-1.8-6-6.6l-3.5-4.7-0.2-0.3-0.3-0.2v-3l0.3-1.5 0.2-1.5v-0.2q0-0.3 0.8-2.6 0.7-2.2 3.7-8.7t8.5-11 8-8.5 3.5-13l1-9-0.5-1.5-0.5-1.5-0.3-0.2-0.2-0.3-0.2-0.3-0.3-0.2-0.3-0.2-0.2-0.3-0.2-0.3-0.3-0.2-0.3-0.2-0.2-0.3h-3q-3 0-5.5 3.7-2.5 3.8-5.5 2.6l-3-1.3-1-0.5-1-0.5-0.2-0.3-0.3-0.2-0.3-0.2-0.2-0.3-1-0.5-1-0.5-0.2-0.3-0.3-0.2-0.3-0.2-0.2-0.3-1-0.3-1-0.2 2.2-7.5q2.3-7.5 7.8-16t10.2-11.7q4.8-3.3 11.3-3.3t11.7 4.3q5.3 4.2 8.8 12.2t3.5 26.5-0.3 21z" fill="#fdfefe" stroke="#fdfefe"/>
  <path d="m1065 666l1-0.5 0.2-0.3 0.3-0.2 0.3 0.2 0.2 0.3 1 0.3 1 0.2v0.2q0 0.3 0.5 0.6l0.5 0.2 51.2 60q51.3 60 60.3 70.5t9.3 10.7l0.2 0.3 0.2 0.3 0.3 0.2 0.5 1 0.5 1 0.3 0.2 0.2 0.3 0.2 0.3 0.3 0.2 0.3 0.2 0.2 0.3 0.2 0.3 0.3 0.2 0.3 1 0.2 1h-205v-0.5l0.2-0.3 0.3-0.2 0.3-0.2 0.2-0.3-1-0.5-1-0.5-1-0.5-1-0.5 0.2-0.3 0.3-0.2 0.3-1 0.2-1h-1q-1 0-1-1t-1.8-2q-1.7-1-1-1.8 0.8-0.7-1-3.4-1.7-2.8-8.2-21.8t-11-37.5-7.8-25.5l-3.2-7 0.2-2 0.3-2 0.3-0.2 0.2-0.3 0.2-0.3 0.3-0.2 0.3-0.2 0.2-0.3 6.5-2.5q6.5-2.5 13.5-2t13.5-0.2q6.5-0.8 6.5-1.8t1.5-0.8q1.5 0.3 3.5-0.2t1-1 15.5-3 23.5-6 8.5-3.2q1.5 0.2 2.7-2.8 1.3-3 3-7.5 1.8-4.5 4.3-5.3 2.5-0.7 4.5-0.7t3-0.5z" fill="#e9a978" stroke="#e9a978"/>
  <path d="m499.8 613h0.2v0.5l0.2 0.3 0.3 0.2 0.3 0.2 0.2 0.3 0.2 0.3 0.3 0.2 0.5 1 0.5 1 0.5 1q0.5 1 1 3t-0.5 7-15.7 8q-14.8 3-16-0.5l-1.3-3.5-0.5-1-0.5-1-0.5-1-0.5-1h-0.5l-0.2-1q-0.3-1-1.8-4.5l-1.5-3.5-0.5-1.5-0.5-1.5-0.3-0.2-0.2-0.3 0.2-0.3 0.3-0.2 0.3-0.2 0.2-0.3h15.5q15.5 0 17.7-0.7 2.3-0.8 2.6-0.8z" fill="#fefefe" stroke="#fefefe"/>
  <path d="m802.8 711.5l0.2-0.5h2.5q2.5 0 3.5 1.2 1 1.3 4.5 3.3t24 5 32.5 5.7q12 2.8 14 5 2 2.3 5 3.8t9 2.5 11.2 5.3q5.3 4.2 7.8 10.2t2.5 20.5 4 25 4.3 12.5l0.2 2-2.5 0.2-2.5 0.3 0.2 0.3 0.3 0.2 0.3 0.5 0.2 0.5h-285v-0.5l2-0.3 2-0.2-0.2-1-0.3-1-0.3-0.2-0.2-0.3 1-0.5 1-0.5-0.2-0.3-0.3-0.2-0.5-1-0.5-1v-2q0-2-2.3-6.5-2.2-4.5-9.7-6.3-7.5-1.7-8.7-3-1.3-1.2-4.8-7.2t-4-15.5 0.8-12.3q1.2-2.7 2-4.4 0.7-1.8 1-5.3l0.2-3.5 0.2-1.5 0.3-1.5 0.5-1 0.5-1 0.3-0.2 0.2-0.3 0.5-1.3q0.5-1.2 3.5-1.4 3-0.3 14.5-5.3t14.3-4.3q2.7 0.8 4.4 4 1.8 3.3 4 4.6 2.3 1.2 3.6 3 1.2 1.7 6.2 2.7t12.2-2.7q7.3-3.8 8.6-5 1.2-1.3 3.4-2 2.3-0.8 3-1.6 0.8-0.7 4-2 3.3-1.2 5.8-0.2t2.8 0q0.2-1 6.2-2.8 6-1.7 8-3.7t6.8-4.3q4.7-2.2 5-1.2 0.2 1 2 1 1.7 0 6.4 0.2 4.8 0.3 6.3 0.8t5 0 14-0.5 16.5-3.3q6-3.2 6.5-2 0.5 1.3 1.5 1.6 1 0.2 1-0.8t3.2 0q3.3 1 3.8 1.5t0.8 0z" fill="#f8b277" stroke="#f8b277"/>
  <path d="m608.8 439l0.2 1 0.5 3q0.5 3 1.5 3t2.8 3.5q1.7 3.5 15.4 9.7 13.8 6.3 15.8 6.6 2 0.2 2.8-1.3 0.7-1.5 1 1.3 0.2 2.7 1.7 3.2t1.7 0.8l0.3 0.2 0.3 0.2 0.2 0.3 1 0.3 1 0.2 1 0.2 1 0.3 1.5 0.5 1.5 0.5 2 0.3 2 0.2 0.2-1 0.3-1 0.5-1q0.5-1 2.5-7l2-6 0.5-1.5 0.5-1.5 0.5-1 0.5-1 0.3 0.2 0.2 0.3 0.2 0.3 0.3 0.2 0.5 1 0.5 1 0.5 1.5 0.5 1.5 1.7 13.8q1.8 13.7-3 18-4.7 4.2-6.2 7.7t-2.2 5.3q-0.8 1.7-1.6 5.4-0.7 3.8-1.2 2.8t-4 12.5-3.8 17.5l-0.2 4-3.2 8.5q-3.3 8.5-5.3 10.5t0.5 6 2 15-0.8 11.2q-0.2 0.3-0.4 0.6l-0.3 0.2-0.3 0.2-0.2 0.3-0.2 0.3-0.3 0.2-0.3 0.2-0.2 0.3-0.2 0.3-0.3 0.2h-0.5l-1 0.2-1 0.3-1 0.5-1 0.5-2.5 0.3-2.5 0.2-3.5 0.2q-3.5 0.3-19 5l-15.5 4.8h-0.2q-0.3 0-0.6-1-0.2-1-1.4-0.5l-1.3 0.5-0.5-1.5-0.5-1.5-0.3 0.2-0.2 0.3h-1l-0.2-0.3-0.3-0.2-0.5-2q-0.5-2-1.2-1.8l-0.8 0.3v-0.5l0.2-1q0.3-1 10.3-17.5l10-16.5v-2l-0.3-0.2-0.2-0.3-1-0.5q-1-0.5-3.5-1.5t-30-17.5l-27.5-16.5-1-0.5-1-0.5-1-0.3-1-0.2-0.2 1-0.3 1-1 3q-1 3-1.5 4.5l-0.5 1.5-0.5 1.5-0.5 1.5-0.5 1.5-0.5 1.5h-0.5l-0.2-2-0.3-2v-5l0.5-2.5q0.5-2.5 1.8-8.7 1.2-6.3 5-35.6 3.7-29.2 5-28 1.2 1.3 1.2-2v-3.2h1q1 0 1 1t3.5 0.8q3.5-0.3 4.5 0l1 0.2v0.2q0 0.3 1 0.6l1 0.2 6.8 5.5q6.7 5.5 8.4 8.3 1.8 2.7 8.8 7.2t8 5l1 0.5 0.2 0.3 0.3 0.2 0.3 0.2 0.2 0.3 0.2 0.3 0.3 0.2 0.3 0.2 0.2 0.3 1 0.5 1 0.5 1 0.3 1 0.2-0.2-3.5q-0.3-3.5-0.3-7.5t4-22 4.3-17z" fill="#0e1015" stroke="#0e1015"/>
  <path d="m111.5 565l1.5 0.5 0.2-0.3 0.3-0.2 0.3 0.2 0.2 0.3 0.2 0.3 0.3 0.2 0.5 1.5q0.5 1.5 1 0t1.5 6.5 1.5 6 1.5 0.5 0.7 3.5q-0.2 1 1.3 1t1.5-1 2-1 2 2-1.8 2q-1.7 0-1.4 1.2 0.2 1.3 0.4 1.6l0.3 0.2 0.3-1q0.2-1 2.7 0t2.5 0 1-1 1-1 2-1.5 2-1.5 1-1 1.2 1q0.3 1 0-0.8-0.2-1.7 5-2.4 5.3-0.8 8-0.8 2.8 0 3-1 0.3-1 1.3 1t1.3 2.8q0.2 0.7 4.2-0.8t4.2-1.8l0.3-0.2 0.3-0.2 0.2-0.3 0.2-0.3 0.3-0.2 0.3-0.2 0.2-0.3 0.2-0.3 0.3-0.2 0.3-0.2 0.2-0.3 0.2-0.3 0.3-0.2 0.3 0.2 0.2 0.3 0.2 0.3 0.3 0.2 0.3 0.2 0.2 0.3 0.2 0.3 0.3 0.2 0.3 0.5 0.2 0.5h0.5l0.3 1 0.2 1-1-0.2-1-0.3-0.2-0.3-0.3-0.2-0.3 0.2-0.2 0.3-1 0.5-1 0.5 0.2 0.3 0.3 0.2 0.3 0.5 0.2 0.5h-0.2q-0.3 0-0.6 0.5l-0.2 0.5-0.2 0.5q-0.3 0.5-0.6 0.7l-0.2 0.3 0.5 0.3 0.5 0.2-1.2 2q-1.3 2-1.6 3.2-0.2 1.3-1.2 1.6-1 0.2-1.5 1.4-0.5 1.3-1.7 2-1.3 0.8-1.6 2-0.2 1.3-1 1-0.7-0.2-1.4 0.6-0.8 0.7-1.8 1.2t0.5 0.8q1.5 0.2 1.5 1.2t-2.8 1q-2.7 0-1.2 1.5t1.8 2.5l0.2 1-2.5-1q-2.5-1-2.5 0.8 0 1.7 0.5 3 0.5 1.2-0.7 0.7-1.3-0.5-2-1.7-0.8-1.3-1.8-1-1 0.2-1.5 3.7t-2.7 3q-2.3-0.5-2.6 0.5-0.2 1-1 1.5-0.7 0.5-1 3-0.2 2.5-1 3-0.7 0.5-0.2 1.5t0.8 1.2l0.2 0.3-0.5 0.5q-0.5 0.5 0.3 1.2 0.7 0.8-1.3 1.3t-2.7 1.7q-0.8 1.3-1.3 0-0.5-1.2-2-1-1.5 0.3-1.7 0l-0.3-0.2-0.3 0.2-0.2 0.3-1.5 0.5-1.5 0.5 2 0.3q2 0.2 2 1.2t-2 1-2 1-2.5 0.2q-2.5-0.7-3.5-0.7h-1l1 1q1 1-0.8 1.3-1.7 0.2-1 3.7 0.8 3.5-1 3.5-1.7 0-1.4 1 0.2 1-0.8 1t-1-1-1.8-0.5q-1.7 0.5-2 1.5-0.2 1-1.7 0.8-1.5-0.3-5.3 0-3.7 0.2-4 1.7-0.2 1.5-1.2 1.5t-1 2-3.2 2q-3.3 0-3.6 1.5-0.2 1.5-1.7 1.5t-1.5 1.5-1.2 1q-1.3-0.5-2 1.5-0.8 2-1.8 2t-1-1-1.8-0.5q-1.7 0.5-2 2-0.2 1.5-2.2 2t-2.2 5q-0.3 4.5-0.8 7l-0.5 2.5-0.5-1-0.5-1-0.5-2-0.5-2-0.5 3.5-0.5 3.5-0.5-4q-0.5-4-2-15.5t-2-10.5-2.2 1.5l-1.8 0.5 0.2-4.5 0.3-4.5h0.5v0.5h1l0.2-0.3 0.3-0.2 0.5-3q0.5-3 2.5-16.5t0.7-13q-1.2 0.5 2-8.5 3.3-9 8-17l4.8-8v0.5h1l0.2-0.3 0.3-0.2 0.7 1.2q0.8 1.3 1.8 1.3h1l0.2-0.3 0.3-0.2 0.3-0.2 0.2-0.3 0.2-0.3q0.3-0.2 2.6-1.4 2.2-1.3 4-3.6 1.7-2.2 8.4-6 6.8-3.7 8.3-4.7t3-0.5zm54.7 17.2l0.3-0.2 0.3 0.2q0.2 0.3-0.3 0.3t-0.3-0.3zm-1.4 2l0.7 0.8-0.3 0.2-0.2 0.3-0.2 0.3-0.3 0.2-0.3 0.2-0.2 0.3 0.2 0.7q0.3 0.8-0.2 2.3l-0.5 1.5-0.3-0.2q-0.2-0.3 0.3-3.8t1.3-2.8zm-85.6 0q0.3-0.2 0.6 0 0.2 0.3-0.3 0.3t-0.3-0.3zm43 3q0.3-0.2 0.6 0 0.2 0.3-0.3 0.3t-0.3-0.3zm27 14.3q1.3-0.5 2 0.3 0.8 0.7-1.2 1.4-2 0.8-2-0.2t1.2-1.5zm0 4.7q0.3-0.2 0.6 0 0.2 0.3-0.3 0.3t-0.3-0.3zm-4 2q0.3-0.2 0.6 0 0.2 0.3-0.3 0.3t-0.3-0.3zm-13 17q0.3-0.2 0.6 0 0.2 0.3-0.3 0.3t-0.3-0.3zm-3 4q0.3-0.2 0.6 0 0.2 0.3-0.3 0.3t-0.3-0.3zm4 0q0.3-0.2 0.6 0 0.2 0.3-0.3 0.3t-0.3-0.3z" fill="#0a4cad" stroke="#0a4cad"/>
  <path d="m506.5 593.5l0.5-2.5v3l7.5 2.2q7.5 2.3 13.3 7 5.7 4.8 8.2 9.8t2.8 7.5q0.2 2.5 21-2 20.7-4.5 24.2-10t3.8-5.5h0.2v0.5l0.8-0.3q0.7-0.2 1.2 1.8l0.5 2 0.3 0.2 0.2 0.3h1l0.2-0.3 0.3-0.2 0.5 1.5 0.5 1.5 1.3-0.5q1.2-0.5 1.4 0.5 0.3 1 0.6 1h0.2v0.5l-1.5 0.3-1.5 0.2 0.2 1 0.3 1 0.3 0.2 0.2 0.3 0.2 0.3 0.3 0.2 4 8q4 8 9 28t5.3 22l0.2 2-0.5-0.2q-0.5-0.3-1.3-1-0.7-0.8-5.4-1.3-4.8-0.5-4.8 0.5t-1 1-1-1-4.5-0.2q-4.5 0.7-10 0.7t-13 1-11.3-1.3q-3.7-2.2-5-2.7-1.2-0.5-1.4-5.5-0.3-5-2.3-11l-2-6-0.5 1.5-0.5 1.5-0.3-0.2-0.2-0.3-0.2-0.3-0.3-0.2-0.3-0.2-0.2-0.3-0.2-0.3-0.3-0.2-0.5-2.5-0.5-2.5-0.3 0.2-0.2 0.3-0.2 0.3-0.3 0.2-0.5 1-0.5 1-0.3 0.2-0.2 0.3-0.2 0.3-0.3 0.2-6 12q-6 12-8.3 14.8-2.2 2.7-2.4 3l-0.3 0.2-0.3 0.2-0.2 0.3-0.2 0.3-0.3 0.2-0.3 1-0.2 1-2-0.2-2-0.3-0.2-0.3-0.3-0.2-0.3 0.2-0.2 0.3-1 0.3-1 0.2v-2l1-0.2q1-0.3 0.5-3l-0.5-2.8h-2l-0.2-1.5-0.3-1.5-0.3 0.2-0.2 0.3-0.2 0.3-0.3 0.2-0.5 1.5-0.5 1.5-0.3 0.2-0.2 0.3-0.2 0.3-0.3 0.2-0.3 0.2-0.2 0.3-0.5 1.3q-0.5 1.2-1.5 1.2t-0.8 1.5q0.3 1.5-1 2.7-1.2 1.3-1.4 1-0.3-0.2-0.6 0.3l-0.2 0.5h-0.2q-0.3 0-0.6 0.5l-0.2 0.5-0.8 0.5q-0.7 0.5-1 1.5l-0.2 1-0.5-0.2q-0.5-0.3-1.5-0.6-1-0.2-1.8 1.3l-0.7 1.5-0.5-2.5q-0.5-2.5-4.2-3-3.8-0.5-4 0.5l-0.3 1-0.3-0.2-0.2-0.3-0.2-0.3-0.3-0.2v-2q0-2 0.7-5 0.8-3-0.2-3t0.5-5.2l1.5-5.3 0.2-0.3 0.3-0.2 0.5-1 0.5-1 0.3-0.2 0.2-0.3 0.2-0.3 0.3-0.2v-5l-0.3 0.2-0.2 0.3-0.2 0.3-0.3 0.2-0.3 0.2-0.2 0.3-0.2 0.3-0.3 0.2-0.3 0.2-0.2 0.3-0.2 0.3-0.3 0.2-0.5 1-0.5 1-0.5 1-0.5 1-0.5 1q-0.5 1-3 5.5t-4.8 6.5q-2.2 2-2.7 4.5t-2 2.3q-1.5-0.3-2-1.6-0.5-1.2-1.5-1.4-1-0.3-4.5 1.7t-14 2.7q-10.5 0.8-10.5-0.2t1.5-1.2q1.5-0.3-1.5-2-3-1.8-2.2-7.8 0.7-6 5-16.5l4.2-10.5 0.5-0.2q0.5-0.3 0.5-0.6v-0.2l2.5-2.2q2.5-2.3 6.5-3.3t5-1h2l1-0.5 1-0.5-0.2-0.3-0.3-0.2-0.3-0.2q-0.2-0.3-1.7-2.6l-1.5-2.2h2l-0.2-1.5-0.3-1.5-0.3-0.2-0.2-0.3 0.2-0.3 0.3-0.2h1l0.5 1 0.5 1 0.5 1 0.5 1 1.3 3.5q1.2 3.5 16 0.5 14.7-3 15.7-8t0.5-7-1-3l-0.5-1-0.5-1-0.5-1-0.3-0.2-0.2-0.3-0.2-0.3-0.3-0.2-0.3-0.2-0.2-0.3v-0.5l1 0.2 1 0.3 0.2 0.3 0.3 0.2 0.3 0.2 0.2 0.3 0.2 0.3 0.3 0.2 0.3 0.2 0.2 0.3h1l0.2-0.3 0.3-0.2 0.3 0.2 0.2 0.3 0.2 0.3 0.3 0.2 0.3 0.2 0.2 0.3 0.2 0.3 0.3 0.2 0.3 0.2 0.2 0.3 0.8 4.7q0.7 4.8 0.4 5.8l-0.2 1 2.5-0.8q2.5-0.7 10.5-1.2l8-0.5 1.5-0.5 1.5-0.5-1-0.5-1-0.5-0.2-0.3-0.3-0.2-0.5-1.5-0.5-1.5-0.5-2q-0.5-2-1-3t-6.5-7.5-7-8-4.7-3q-3.8-1.5-3.3-4zm14.7 81.7q0.3-0.2 0.6 0 0.2 0.3-0.3 0.3t-0.3-0.3z" fill="#1f2026" stroke="#1f2026"/>
  <path d="m977.2 628l16.8-53 1 3.2q1 3.3 35.5 43.3t34.7 40.3l0.3 0.2 0.3 0.2 0.2 0.3 0.2 0.3 0.3 0.2 0.3 0.2 0.2 0.3 0.2 0.3 0.3 0.2 0.3 0.2 0.2 0.3 1 0.3 1 0.2v2l-1-0.2-1-0.3-0.2-0.3-0.3-0.2-0.3-0.2-0.2-0.3-0.2-0.3-0.3-0.2-0.3 0.2-0.2 0.3-1 0.5q-1 0.5-3 0.5t-4.5 0.7q-2.5 0.8-4.3 5.3-1.7 4.5-3 7.5-1.2 3-2.7 2.8-1.5-0.3-8.5 3.2t-23.5 6-15.5 3-1 1-3.5 0.2q-1.5-0.2-1.5 0.8t-6.5 1.8q-6.5 0.7-13.5 0.2t-13.5 2l-6.5 2.5-0.2 0.3-0.3 0.2-0.3 0.2-0.2 0.3-0.2 0.3-0.3 0.2-0.3 2-0.2 2-0.5-0.2-0.5-0.3-0.2-0.3-0.3-0.2-0.5-1q-0.5-1-0.8-2.5-0.2-1.5-1.2-1.5t-2.5-2.2q-1.5-2.3-3.5-7l-2-4.8v-0.5l0.2-0.3 0.3-0.2 0.5-1 0.5-1 0.5-1 0.5-1 0.3-0.5 0.2-0.5v-0.5l0.2-0.3 0.3-0.2 0.5-1.5 0.5-1.5 0.5-1 0.5-1 0.3 0.2 0.2 0.3 0.2 0.3 0.3 0.2 2 3.5q2 3.5 2.3 4.5l0.2 1 2.5-0.2 2.5-0.3 0.2-0.3 0.3-0.2 0.3-0.2 0.2-0.3 0.2-0.3 0.3-0.2 0.3-0.2 0.2-0.3 0.2-0.3 0.3-0.2 0.5-1q0.5-1 1-1.5t17.2-53.5z" fill="#daaa90" stroke="#daaa90"/>
  <path d="m230 561.8l1 0.2-4.8 23q-4.7 23-6.7 28t-2.5 6l-0.5 1-0.3 0.2-0.2 0.3-0.2 0.3-0.3 0.2-0.3 0.5-0.2 0.5-8.5 12.8q-8.5 12.7-10 13.4-1.5 0.8-8.3 9.8-6.7 9-11.2 18.5t-5.5 18.5 0 17.5 1.5 10l0.5 1.5 0.3 0.2 0.2 0.3h5.5q5.5 0 8.5-1.5t4-2l1-0.5h5l0.2 0.3 0.3 0.2 0.3 1.5 0.2 1.5h-0.5l-0.3-1-0.2-1-1 0.2-1 0.3-0.2 0.3-0.3 0.2-0.3 0.2-0.2 0.3-0.2 0.3-0.3 0.2-1 1.5q-1 1.5-1.5 6t-7.8 10.7q-7.2 6.3-14.2 7.3t-5.5 1.5-0.5 0.5h-2l-1-0.3-1-0.2 0.2 1 0.3 1 0.3 0.2q0.2 0.3 2.7 0.8l2.5 0.5-2.5 0.5-2.5 0.5-1 0.3-1 0.2v-2h-0.5l-0.3-2.5-0.2-2.5-1 0.2-1 0.3-1 0.5-1 0.5-0.2 0.3-0.3 0.2-0.3 0.2-0.2 0.3-1 0.5q-1 0.5-6.8 4.8-5.7 4.2-14.4 8-8.8 3.7-19.3 4.2t-15.5-1-11.2-7.2q-6.3-5.8-11.8-16.8t-10-28-6-37-1-27l0.5-7 0.3-3 0.2-3h2v7h-0.5l-0.3 4.5-0.2 4.5 1.8-0.5q1.7-0.5 2.2-1.5t2 10.5 2 15.5l0.5 4 0.5-3.5 0.5-3.5 0.5 2 0.5 2 0.5 1 0.5 1 0.5-2.5q0.5-2.5 0.8-7 0.2-4.5 2.2-5t2.2-2q0.3-1.5 3.6-2 3.2-0.5 3.4-1.5 0.3-1 3-2 2.8-1 3-2.5 0.3-1.5 2-1.7 1.8-0.3 2.3-1 0.5-0.8 1.5-0.8t1-1 1-1 1.2-1.5q0.3-1.5 4-1.5 3.8 0 3.8-1t1-0.8q1 0.3 4-0.7t3.2-4.7q0.3-3.8 1.6-4 1.2-0.3 0.7 0.2t1.5 0.5 1-1l-1-1 0.2-0.3q0.3-0.2 0.6-1.2 0.2-1 3.2 0t3.5-1.5 6.5-3.7l6-1.3-1.5-0.5q-1.5-0.5-2.5-0.8-1-0.2-1-1.2t1.5-1 1.5-1 1.5-1.2q1.5-0.3 1.3-1.6-0.3-1.2 0.4-1.7 0.8-0.5 1-2 0.3-1.5 2-1.7 1.8-0.3 2.6-1 0.7-0.8 1.2-2.3t0.2-3q-0.2-1.5 2.3-1.7 2.5-0.3 1.7-2.6-0.7-2.2 0.6-3 1.2-0.7 1.7-1.4 0.5-0.8 1.5-0.8t1.2 1q0.3 1 1 0.8 0.8-0.3 1.6-1.6 0.7-1.2 3-2.4 2.2-1.3 1.7-2.6-0.5-1.2 0.7-1.7 1.3-0.5 2.6-2.5l1.2-2h1q1 0 1-1v-3l0.5-0.2q0.5-0.3 0.5-0.6v-0.2l-0.2-0.5-0.3-0.5-0.3-0.2-0.2-0.3 1-0.5 1-0.5 0.2-0.3 0.3-0.2 0.3-0.2q0.2-0.3 0.7-0.6l0.5-0.2 2.2-2q2.3-2 2.6-3.5 0.2-1.5 1.7-1.5t1.5-1 4.8-3.5q4.7-2.5 8.4-5.5 3.8-3 4.3-3.8 0.5-0.7 2.7-0.4 2.3 0.2 5-2 2.8-2.3 7.8-2.6 5-0.2 5 0.8t5 3.8q5 2.7 5.5 2.7t1.5 0.3zm-79.8 41.4q0.3-0.2 0.6 0 0.2 0.3-0.3 0.3t-0.3-0.3zm2.8 0.8q0-1 2-1t2 1-2 1-2-1zm1.8 5l0.2 1-1-0.2q-1-0.3-1.5-1.6-0.5-1.2 0.7-0.7 1.3 0.5 1.6 1.5zm-6.3 2.5q0-1.5 1.3 0.5 1.2 2 0 1.5-1.3-0.5-1.3-2zm-11.5 18.5q1 0 1 1t-1 1-1-1 1-1zm-5 1q1 0 0.8 2-0.3 2-1 0-0.8-2 0.2-2zm-3.8 1.2q0.3-0.2 0.6 0 0.2 0.3-0.3 0.3t-0.3-0.3zm-2.2 2.8q0-1 1-1t1 1-1 1-1-1zm-2.8 2.2q0.3-0.2 0.6 0 0.2 0.3-0.3 0.3t-0.3-0.3z" fill="#063594" stroke="#063594"/>
  <path d="m274 460l0.5 1 0.3 0.2 0.2 0.3-0.2 0.3q-0.3 0.2-0.6 0.4-0.2 0.3-0.2 2 0 1.8-3 1.6l-3-0.3 1 0.5 1 0.5 1 0.5 1 0.5 1.5 0.5 1.5 0.5 2 0.5 2 0.5 4 0.5 4 0.5h1l0.2-0.3 0.3-0.2 0.3-0.2 0.2-0.3-1-0.5-1-0.5 0.2-0.3 0.3-0.2v-3q0-3-0.5-4t-1-4.5l-0.5-3.5-0.5-1-0.5-1v-2l0.3-0.2 0.2-0.3h2l0.2 0.3 0.3 0.2 0.5 1 0.5 1 0.3 1 0.2 1h3v1q0 1 1.2 0.5 1.3-0.5 2.3 7.5t6 22 7.5 26.5 3 15l0.5 2.5 0.5 2.5 0.5 2.5 0.3 1 0.2 1 13.8 50q13.7 50 14.2 51.5t0.8 3l0.2 1.5v0.2q0 0.3 0.5 0.6l0.5 0.2 0.2 2 0.3 2 7.5 16.5q7.5 16.5 10 21t2.8 5.5l0.2 1h-1q-1 0-1-1t-2.5-0.2q-2.5 0.7-3.5 3-1 2.2-3.5 2.4-2.5 0.3-3 1.6-0.5 1.2-7.5 1.4l-7 0.3-2.5 0.5-2.5 0.5h-1l-0.2-0.3-0.3-0.2v2l0.3 0.2 0.2 0.3h1l0.2-0.3 0.3-0.2 0.3-0.2 0.2-0.3h1q1 0 1.5 0h0.5l0.2-0.3 0.3-0.2 0.3 0.2 0.2 0.3 0.2 0.3 0.3 0.2 0.3 0.2 0.2 0.3 0.2 0.3 0.3 0.2 0.3 1 0.2 1-1-0.2-1-0.3-0.2-0.3-0.3-0.2-0.3 0.2-0.2 0.3h-1.5q-1.5 0-2.5 0h-1l-0.2-0.3-0.3-0.2-0.3 1-0.2 1-2 0.2-2 0.3 8 0.5 8 0.5-3 0.5-3 0.5-3.2 0.7q-3.3 0.8-3.6 1.8-0.2 1-1.2 1t-0.2 3.5q0.7 3.5-1.3 7t-1.3 5q0.8 1.5 0 2-0.7 0.5-0.2 2t0 2.5 0.5 1 0.7 5q-0.2 5 2.3 4.8 2.5-0.3 2.7 0l0.3 0.2 0.3 0.2 0.2 0.3-0.2 0.3-0.3 0.2-0.3 0.2-0.2 0.3-0.2 0.3-0.3 0.2-0.3 0.2q-0.2 0.3 0 0.6l0.3 0.2 0.3 0.2 0.2 0.3 1 0.5 1 0.5-2 0.3-2 0.2v2l-5-0.2q-5-0.3-11.5-0.8t-28-0.8l-21.5-0.2-3.5 0.2-3.5 0.3-1 0.3-1 0.2 0.2-1 0.3-1 0.5-2.5 0.5-2.5v-9l-0.5 1.5q-0.5 1.5-1 0t-4.8-2.3q-4.2-0.7-7.4-11.4-3.3-10.8-5.3-15.3t-5.5-18.5l-3.5-14 0.3-0.2 0.2-0.3-0.2-0.3-0.3-0.2-0.3-0.2-0.2-0.3-0.2-0.3-0.3-0.2-0.5-1-0.5-1v-3l0.5 1 0.5 1 0.3 0.2 0.2 0.3 1 0.3 1 0.2 0.2 1 0.3 1 0.5 2 0.5 2 0.3 0.2 0.2 0.3h2l0.2-0.3 0.3-0.2 0.3-0.2 0.2-0.3-0.2-0.3-0.3-0.2-0.5-1-0.5-1-0.3-0.2-0.2-0.3 1-0.3q1-0.2 0.8-1.7l-0.3-1.5-0.5-1.5-0.5-1.5-0.3-0.2-0.2-0.3h2l0.2 0.3 0.3 0.2 0.5 1.5 0.5 1.5 0.5 1 0.5 1 2.7 3.8q2.8 3.7 3.8 4.2t0 1 0.2 1.2q1.3 0.8 1.8 2.3l0.5 1.5 0.3 0.2 0.2 0.3h5l0.2-0.3 0.3-0.2 0.3-0.2 0.2-0.3-1-0.3-1-0.2-0.2-2-0.3-2-0.3-0.2-0.2-0.3-0.2-0.3-0.3-0.2-0.5 1q-0.5 1-0.5-2t-1.7-3.5q-1.8-0.5-1.6-1.5 0.3-1-1.4-4.8-1.8-3.7-6.6-17-4.7-13.2-5.2-20.7l-0.5-7.5 0.3-0.2 0.2-0.3-0.2-0.3-0.3-0.2-0.5-2-0.5-2-0.3 0.2-0.2 0.3h-2l-0.2-0.3-0.3-0.2-0.7 1.8q-0.8 1.7-1.8 2-1 0.2-1 2.2v2l-1 0.2-1 0.3-0.2 0.3-0.3 0.2-0.5-1-0.5-1-0.3-1-0.2-1h-3l0.2-0.5 0.3-0.5 0.3-0.2 0.2-0.3 0.2-0.3 0.3-0.2 0.5-1q0.5-1 2.5-6t6.7-28l4.8-23 0.2-1q0.3-1 1.6-4.5l1.2-3.5 0.2-1.5 0.3-1.5 0.5-2.5q0.5-2.5 6-29t12-46l6.5-19.5h0.5l0.5-0.2 0.5-0.3 1.5-0.3q1.5-0.2 2-2.2t1.5-2 1.2 3q0.3 3 1 4.5 0.8 1.5 3 2.5 2.3 1 2.8 2z" fill="#0b0c10" stroke="#0b0c10"/>
  <path d="m497.2 549l1.8-23 1 3q1 3 2 3t0.8 5.5q-0.3 5.5 0.7 7t2.7 2.5q1.8 1 2.3 8t1.7 7.5q1.3 0.5 1.3 4.5t-0.5 7.5l-0.5 3.5-0.5 2.5-0.5 2.5-0.3 1-0.2 1h-0.2q-0.3 0-0.8 1.5l-0.5 1.5-0.3 1.5-0.2 1.5-0.5 2.5q-0.5 2.5 3.3 4 3.7 1.5 4.7 3t7 8 6.5 7.5 1 3l0.5 2 0.5 1.5 0.5 1.5 0.3 0.2 0.2 0.3 1 0.5 1 0.5-1.5 0.5-1.5 0.5-8 0.5q-8 0.5-10.5 1.2l-2.5 0.8 0.2-1q0.3-1-0.4-5.8l-0.8-4.7-0.2-0.3-0.3-0.2-0.3-0.2-0.2-0.3-0.2-0.3-0.3-0.2-0.3-0.2-0.2-0.3-0.2-0.3-0.3-0.2-0.3 0.2-0.2 0.3h-1l-0.2-0.3-0.3-0.2-0.3-0.2-0.2-0.3-0.2-0.3-0.3-0.2-0.3-0.2-0.2-0.3-1-0.3-1-0.2h-0.2q-0.3 0-2.6 0.8-2.2 0.7-17.7 0.7h-15.5l-0.2 0.3-0.3 0.2-0.3 0.2-0.2 0.3 0.2 0.3 0.3 0.2 0.5 1.5 0.5 1.5 1.5 3.5q1.5 3.5 1.8 4.5l0.2 1h-0.5l-0.3 0.2-0.2 0.3 0.2 0.3 0.3 0.2 0.3 3.2q0.2 3.3 0.7 3.8t0.7 0.8l0.3 0.2 0.3 0.2 0.2 0.3-1 0.5-1 0.5h-2q-1 0-6.5 2t-6 3.7q-0.5 1.8-1.5 1.8h-1v-0.2q0-0.3-4.5-0.3t-7.3 2.3l-2.7 2.2-0.3 0.2-0.2 0.3-0.2 0.3-0.3 0.2-0.3 0.2-0.2 0.3-0.2 0.3-0.3 0.2-0.5-1q-0.5-1-0.8-2-0.2-1-1.2-0.8l-1 0.3-8.8 12.7q-8.7 12.8-9 11.3-0.2-1.5-2.2-1t-2.2 1.5q-0.3 1-0.8 2l-0.5 1-0.3 1-0.2 1h-2l0.2-2q0.3-2 0.3-4v-2l-0.5 1-0.5 1-0.5 1-0.5 1-1.7 5.2q-1.8 5.3-2.3 4-0.5-1.2-1.5-1.2t-3.8 14.5q-2.7 14.5-3 19.5l-0.2 5-1-0.2-1-0.3-0.2-0.3-0.3-0.2-0.5-1.5-0.5-1.5-0.3-2q-0.2-2-1.2-2t-1.2-5.5l-0.3-5.5-0.5 1.5-0.5 1.5-0.5 3q-0.5 3-1 6.5l-0.5 3.5-0.3-0.2-0.2-0.3-0.2-0.3-0.3-0.2-0.3-0.2-0.2-0.3-0.2-0.3-0.3-0.2-0.3-0.2-0.2-0.3-0.2-0.3-0.3-0.2-0.3-0.2-0.2-0.3-0.2-0.3-0.3-0.2-0.5-1-0.5-1-0.5-1q-0.5-1-5.8-11l-5.2-10-0.2-0.5q-0.3-0.5-0.6-0.5h-0.2l-0.2-1q-0.3-1-2.3-5t-9.5-20.5l-7.5-16.5-0.5-1.5-0.5-1.5-0.3-1-0.2-1 1 0.2 1 0.3h3l0.2 0.3 0.3 0.2 0.3 0.2 0.2 0.3 0.2 0.3 0.3 0.2 0.3-1 0.2-1h2l1.2 4q1.3 4 3.8 6.5t2.8 2.7l0.2 0.3 1.5 0.5 1.5 0.5 0.2 0.3 0.3 0.2 0.3 0.2 0.2 0.3 0.2 0.3 0.3 0.2 0.3 0.2 0.2 0.3h1l0.2-0.3 0.3-0.2 0.3-0.2 0.2-0.3 1-0.5 1-0.5-0.2-0.3-0.3-0.2-0.3-0.2-0.2-0.3-0.2-0.3-0.3-0.2-0.3-0.2-0.2-0.3 0.2-0.3 0.3-0.2 0.3-0.2 0.2-0.3-1-0.3q-1-0.2-1.5-3.2t0.5-3.2q1-0.3 0.2-2-0.7-1.8-0.4-3.6 0.2-1.7 0.2-7v-5.2h1q1 0 1.5 1.2 0.5 1.3 4.5-0.7t5-2.3l1-0.2v1q0 1-1.5 1.2-1.5 0.3-0.5 0.8l1 0.5h2l1-0.3q1-0.2 1.2-1.2 0.3-1 6.8-7t7-9 3.2-5.8q2.8-2.7 2-4-0.7-1.2 5-7 5.8-5.7 11.8-9.2t7.5-3.2l1.5 0.2 0.2-1 0.3-1 0.3-1 0.2-1 1-0.2 1-0.3 0.2-0.3 0.3-0.2 0.5-1 0.5-1 0.3-0.2 0.2-0.3 0.2-0.3 0.3-0.2v-2l-0.3-0.2-0.2-0.3 1-0.3 1-0.2-0.2 2.5-0.3 2.5-0.3 0.2-0.2 0.3-0.2 0.3-0.3 0.2-0.5 2q-0.5 2-0.8 2.2l-0.2 0.3-0.2 0.3-0.3 0.2-0.3 0.2-0.2 0.3-0.2 0.3-0.3 0.2-0.5 1.5-0.5 1.5-0.3 0.2-0.2 0.3h3l0.2-0.3 0.3-0.2 0.3-0.2 0.2-0.3 0.2-0.3 0.3-0.2 0.3-0.2 0.2-0.3 0.2-0.3 0.3-0.2 0.3-0.2 0.2-0.3 0.2-0.3 0.3-0.2 0.3-0.2 0.2-0.3 0.2-0.3 0.3-0.2 0.3-0.2 0.2-0.3 0.2-0.3 0.3-0.2 2-6q2-6 2.7-8.2 0.8-2.3 5.8-2.8t12.5 1.5 11.5 1 7.2-0.7q3.3 0.2 4-0.6 0.8-0.7 2.6-1.4 1.7-0.8 3-2.6 1.2-1.7 2.2-2l1-0.2 0.2-1 0.3-1 0.3-1.5 0.2-1.5h2l-0.8 10.5q-0.7 10.5-0.7 11t-0.5 4l-0.5 3.5v5l0.3-0.2 0.2-0.3 0.2-0.3 0.3-0.2 0.5-2.5 0.5-2.5 0.5-1.5 0.5-1.5 0.5-4q0.5-4 2.2-27zm-147 95.2q0.3-0.2 0.6 0 0.2 0.3-0.3 0.3t-0.3-0.3zm84 1q0.3-0.2 0.6 0 0.2 0.3-0.3 0.3t-0.3-0.3z" fill="#0e0f14" stroke="#0e0f14"/>
  <path d="m546.2 644.2l0.3-0.2 0.5 2.5 0.5 2.5 0.3 0.2 0.2 0.3 0.2 0.3 0.3 0.2 0.3 0.2 0.2 0.3 0.2 0.3 0.3 0.2 0.5-1.5 0.5-1.5 2 6q2 6 2.3 10 0.2 4 1.2 4t1 1.8q0 1.7 4.5 3.7t11.5 1 12.5-1 15.5-0.5 11 0.5 1.5 1.3l0.5 0.2v3l4-0.8q4-0.7 5-0.2l1 0.5 1 0.5 1 0.5 0.2 0.3 0.3 0.2v3l-0.3 0.2-0.2 0.3-0.2 0.3-0.3 0.2-0.3 0.2-0.2 0.3-0.2 0.3-0.3 0.2-0.3 0.2-0.2 0.3-1 0.5q-1 0.5-1.2 0.8-0.3 0.2-4 1.2l-3.8 1v11h-0.2q-0.3 0-2.8 7.5t-19.2 6.3q-16.8-1.3-26.3-1.3t-28.5 3.3l-19 3.2v-0.5l-1-0.5-1-0.5-0.2-0.3-0.3-0.2-0.3 0.2-0.2 0.3-1 0.3-1 0.2 0.2-2.5q0.3-2.5 2.8-6.5l2.5-4 0.5-1.5 0.5-1.5v-3l-0.3-0.2-0.2-0.3-0.2-0.3-0.3-0.2-0.3 1-0.2 1-1.5 0.2-1.5 0.3-0.2 0.3-0.3 0.2-0.3 0.2-0.2 0.3-0.2 0.3-0.3 0.2-0.3 0.2-0.2 0.3-0.2 0.3-0.3 0.2-2.7 3.8q-2.8 3.7-3 4l-0.3 0.2-0.3 0.2-0.2 0.3-0.2 0.3-0.3 0.2-0.3-1-0.2-1h-2l-0.2 1-0.3 1-0.3 0.2-0.2 0.3 0.2 0.3 0.3 0.2 0.3 0.2 0.2 0.3-1 0.3-1 0.2 0.2-2 0.3-2 0.5-1.5q0.5-1.5 1.5-3.5t0.5-3.5-2.2-1.7q-1.8-0.3-2-1-0.3-0.8-1.6-1.6l-1.2-0.7 1-0.5q1-0.5 3.5-3.8l2.5-3.2 0.5-0.2q0.5-0.3 1-1.6l0.5-1.2 0.5-0.2q0.5-0.3 0.5-0.6v-0.2l0.2-0.5q0.3-0.5 0.6-0.3 0.2 0.3 1.4-1 1.3-1.2 1-2.7-0.2-1.5 0.8-1.5t1.5-1.2l0.5-1.3 0.2-0.3 0.3-0.2 0.3-0.2 0.2-0.3 0.2-0.3 0.3-0.2 0.5-1.5 0.5-1.5 0.3-0.2 0.2-0.3 0.2-0.3 0.3-0.2 0.3 1.5 0.2 1.5h2l0.5 1.2q0.5 1.3 1.5 1 1-0.2 0 1.6-1 1.7-2 2l-1 0.2v2l1-0.2 1-0.3 0.2-0.3 0.3-0.2 0.3 0.2 0.2 0.3 2 0.3 2 0.2 0.2-1 0.3-1 0.3-0.2 0.2-0.3 0.2-0.3 0.3-0.2 0.3-0.2q0.2-0.3 2.4-3 2.3-2.8 8.3-14.8l6-12 0.3-0.2 0.2-0.3 0.2-0.3 0.3-0.2 0.5-1 0.5-1 0.3-0.2 0.2-0.3 0.2-0.3zm-23 52.8l-0.2 1h-1q-1 0-1.2-1-0.3-1 0.4-1.8 0.8-0.7 1.6 0 0.7 0.8 0.4 1.8zm-22-0.8q0.3-0.2 0.6 0 0.2 0.3-0.3 0.3t-0.3-0.3zm3 0q0.3-0.2 0.6 0 0.2 0.3-0.3 0.3t-0.3-0.3z" fill="#151215" stroke="#151215"/>
  <path d="m411.5 319.8l0.5 0.2v0.2q0 0.3 0.5 0.6l0.5 0.2 0.2 0.5q0.3 0.5 0.6 0.7l0.2 0.3h2v-0.5l0.8 0.5q0.7 0.5 1 1l0.2 0.5-0.2 0.5q-0.3 0.5-4 1.7l-3.8 1.3 1.2 0.7q1.3 0.8 1.6 1.6 0.2 0.7-2.8 1.2l-3 0.5 1.5 0.5 1.5 0.5 1.8 0.7q1.7 0.8 1.2 1.8t-0.2 1.2q0.2 0.3 1.2 0.8l1 0.5 0.2 0.3 0.3 0.2 0.3 0.2 0.2 0.3 1.5 0.5 1.5 0.5-0.2 0.3-0.3 0.2-0.3 0.2-0.2 0.3-0.2 0.3-0.3 0.2-0.3-0.2-0.2-0.3h-2q-2 0-3.5 0.5l-1.5 0.5-1 0.3-1 0.2-2-0.2q-2-0.3-8-0.3t-21 5-25.5 11-12 8.7q-1.5 2.8-2.5 2.8t-1 1-1.5 1-1.5 1.5-1 1.5-3 4-3 4-1 1-1 1-4 8.5-4.5 8.7q-1.5 0.3-0.5 0.8t-0.5 1.5-1.3 1.7q0.3 0.8-0.4 10.8-0.8 10-2.8 10t-1.8 2q0.3 2 1.3 3l1 1 0.3 0.2 0.2 0.3-0.2 0.3-0.3 0.2-0.3 0.2-0.2 0.3 0.2 0.3 0.3 0.2 0.3 0.2 0.2 0.3h-2q-2 0-5-0.3l-3-0.2-0.2 1-0.3 1-0.3 0.2-0.2 0.3 0.2 0.3 0.3 0.2 1 4q1 4 3.7 8.8 2.8 4.7 3.8 5 1 0.2 2 1.4 1 1.3 11.5 10 10.5 8.8 11.5 13.6 1 4.7-0.2 4.4-1.3-0.2-1.6 1.6-0.2 1.7-0.2 2.7t1 1.3q1 0.2 1.5 1.4 0.5 1.3-0.3 2-0.7 0.8-1.4 5.6-0.8 4.7-3.3 8.2t-1.5 4.5-0.2 1.7q-1.3 0.8-3 5-1.8 4.3-2.8 6-1 1.8-2.2 2.3-1.3 0.5-1.8-2l-0.5-2.5-0.5 4.5-0.5 4.5-0.3 0.2-0.2 0.3-0.2 0.3-0.3 0.2-0.3 0.2-0.2 0.3 0.2 0.3 0.3 0.2v3l-0.3-0.2-0.2-0.3-0.2-0.3-0.3-0.2h-0.5l-0.2-1-0.3-1-0.5-2.5-0.5-2.5-0.5-2.5q-0.5-2.5-3-15t-7.5-26.5-6-22-2.3-7.5q-1.2 0.5-1.2-0.5v-1h-3l-0.2-1-0.3-1-0.5-1-0.5-1-0.3-0.2-0.2-0.3h-2l-0.2 0.3-0.3 0.2v2l0.5 1 0.5 1 0.5 3.5q0.5 3.5 1 4.5t0.5 4v3l-0.3 0.2-0.2 0.3 1 0.5 1 0.5-0.2 0.3-0.3 0.2-0.3 0.2-0.2 0.3h-1l-4-0.5-4-0.5-2-0.5-2-0.5-1.5-0.5-1.5-0.5-1-0.5-1-0.5-1-0.5-1-0.5 3-1.5q3-1.5 3.2-1.8 0.3-0.2 0.6-0.4l0.2-0.3-0.2-0.3-0.3-0.2-0.5-1q-0.5-1-2.8-2-2.2-1-3.7-4.5t-2.5-3.5-1 1-1.5 1.2l-1.5 0.3-0.5 0.3-0.5 0.2 0.2-1 0.3-1 0.5-1.5 0.5-1.5 8.5-17q8.5-17 19.2-30.2 10.8-13.3 20.8-22.8t23.5-17.5 24.3-14.7q10.7-6.8 21.2-13.3t14.8-9.7q4.2-3.3 10.7-3.3t7 0.3zm-89.5 197q-1-2.8 0.2-2.3 1.3 0.5 1 2.7-0.2 2.3-1.2-0.4z" fill="#292f3d" stroke="#292f3d"/>
  <path d="m554 238.5h3l3.8 2.7q3.7 2.8 5 9.6 1.2 6.7 2.2 7 1 0.2 2.8 3.7 1.7 3.5 2.4 7.3 0.8 3.7 0.6 4-0.3 0.2-0.8 1.2l-0.5 1v3l0.3 0.2 0.2 0.3 1.5 0.3 1.5 0.2v-3l4.5-3.5q4.5-3.5 6.3-1.5 1.7 2 3.4-0.8 1.8-2.7 3.6-3 1.7-0.2 6-2.2 4.2-2 5.7-4.2 1.5-2.3 6.7-2 5.3 0.2 5.6-0.8 0.2-1 3.7-3.5t4.3-5q0.7-2.5 1-4.5l0.2-2h2l0.5 2q0.5 2 3.7 1 3.3-1 4.6-2.2 1.2-1.3 2 0.4 0.7 1.8 3.2 2.8t8 9.5 7 14 2 11l0.5 5.5 0.3 0.2 0.2 0.3h2l0.2-0.3 0.3-0.2 0.3-0.2 0.2-0.3 5.5-0.3 5.5-0.2v0.5l-1 0.5-1 0.5-1 0.5-1 0.5-0.2 0.3-0.3 0.2-0.3 0.2-0.2 0.3-0.2 0.3-0.3 0.2-0.3 0.2-0.2 0.3-1.5 0.5q-1.5 0.5-6 1t-6 2-2.7 7.2q-1.3 5.8-3.3 9.8t-1.3 8.5l0.8 4.5-0.5 0.2q-0.5 0.3-0.5 0.6v0.2l-0.5 0.2q-0.5 0.3-0.5 0.6v0.2l-1.2 1q-1.3 1-2.6 6-1.2 5-2.2 5t-1.5 0.8q-0.5 0.7-2 1.2t-0.7 4.8q0.7 4.2 1.2 5.7l0.5 1.5 0.3 0.2 0.2 0.3 0.2 0.3 0.3 0.2v2l-0.3-0.2-0.2-0.3-0.2-0.3q-0.3-0.2-2.6-1.2-2.2-1-2.4 1-0.3 2-3.6 6-3.2 4-4.4 4.5-1.3 0.5-5 4-3.8 3.5-4 2.5-0.3-1-2.6-2l-2.2-1 0.8 2.5q0.7 2.5 0.2 3.5l-0.5 1-0.3 1-0.2 1-4 0.2q-4 0.3-5 3-1 2.8 0.5 3 1.5 0.3 0.5 0.6-1 0.2-0.8 1.2l0.3 1 0.3 0.2 0.2 0.3 0.2 0.3 0.3 0.2 0.3 1 0.2 1-1-0.2q-1-0.3-2.2-2-1.3-1.8-3.3 2.2t-5.7 6.2q-3.8 2.3-13.8 0.8t-19.5-5.5-13.5-4.5-6.5 2.2l-2.5 2.8-0.5 0.2q-0.5 0.3-4 2.3l-3.5 2v0.5l-1.5 0.2-1.5 0.3-1 0.3-1 0.2-0.2-1.5-0.3-1.5-0.5-2q-0.5-2-5.5-14.5t-13.5-27-16.5-23-10-14l-2-5.5-0.3-1-0.2-1h0.5l0.3 0.2 0.2 0.3 1-1.3q1-1.2 6-2.4 5-1.3 9.8-4.6 4.7-3.2 5-3.7l0.2-0.5 5.5-4.2q5.5-4.3 6.5-4.6 1-0.2 2.5-2.4 1.5-2.3 2.5-2.6 1-0.2 5-5 4-4.7 1.5-5-2.5-0.2-1-3 1.5-2.7 3.7-8.4 2.3-5.8 5.3-6.8t7.5-3.5 9.2-6.3q4.8-3.7 7.8-3.7zm54.8 22q1.2-0.5 1.2 0.5t-1.2 0.5q-1.3-0.5 0-1zm3.2-0.5q1 0 1 1t-1 1-1-1 1-1zm2.2 0.8q-0.2-0.3 0-0.6 0.3-0.2 0.3 0.3t-0.3 0.3zm5 107q-0.2-0.3 0-0.6 0.3-0.2 0.3 0.3t-0.3 0.3z" fill="#efb09f" stroke="#efb09f"/>
  <path d="m982.8 503h0.2l1 3q1 3 3 3.5t2.5-0.3q0.5-0.7 1.3 0 0.7 0.8 1.2 3.3l0.5 2.5 0.3 0.2 0.2 0.3 0.2 0.3 0.3 0.2 0.3 0.2 0.2 0.3 0.2 0.3 0.3 0.2 0.3 1.5 0.2 1.5-18.2 61q-18.3 61-18.8 62.5l-0.5 1.5-0.5 1.5-0.5 1.5-0.3 2-0.2 2-1-0.2-1-0.3-0.2-0.3-0.3-0.2-0.5-1-0.5-1-0.3-0.2-0.2-0.3-0.2-0.3-0.3-0.2-0.5-1-0.5-1-0.5-1q-0.5-1-10.8-17l-10.2-16 0.2-1 0.3-1v-1l-0.3-0.2-0.2-0.3-0.2-0.3-0.3-0.2-0.5-1-0.5-1-0.3-0.2-0.2-0.3-0.2-0.3-0.3-0.2-0.5-1q-0.5-1-2.2-8-1.8-7-0.8-7t0.8-3q-0.3-3-1.8-5.5t-1-5 1-12 3.5-17l3-7.5 0.5-2 0.5-2 0.5-1 0.5-1h0.5l-0.2 1.5-0.3 1.5v3l0.3 0.2 0.2 0.3 3.5 4.7q3.5 4.8 6 6.6 2.5 1.7 2.7 2l0.3 0.2 0.3 0.2 0.2 0.3 0.2 0.3 0.3 0.2 0.3 0.2 0.2 0.3 1 0.5 1 0.5 0.2 0.3 0.3 0.2 3.7-6.2q3.8-6.3 9.8-9.8t10.2-9.2q4.3-5.8 7.8-16.8t3.8-11z" fill="#b3e9fc" stroke="#b3e9fc"/>
  <path d="m1030.8 429l0.2 1h-1.2q-1.3 0-3.3 2t-10.3 30.2q-8.2 28.3-9.2 28.6-1 0.2-4.8 10.2-3.7 10-4.2 11l-0.5 1-0.5 2-0.5 2-0.5 1.5-0.5 1.5h-0.5l-0.2-1.5-0.3-1.5-0.3-0.2-0.2-0.3-0.2-0.3-0.3-0.2-0.3-0.2-0.2-0.3-0.2-0.3-0.3-0.2-0.5-2.5q-0.5-2.5-1.2-3.3-0.8-0.7-1.3 0-0.5 0.8-2.5 0.3t-3-3.5l-1-3 0.2-2.5q0.3-2.5 0.3-21t-3.5-26.5-8.8-12.2q-5.2-4.3-11.7-4.3t-11.3 3.3q-4.7 3.2-10.2 11.7t-7.8 16l-2.2 7.5 1 0.2 1 0.3 0.2 0.3 0.3 0.2 0.3 0.2 0.2 0.3 1 0.5 1 0.5 0.2 0.3 0.3 0.2 0.3 0.2 0.2 0.3 1 0.5 1 0.5 3 1.3q3 1.2 5.5-2.6 2.5-3.7 5.5-3.7h3l0.2 0.3 0.3 0.2 0.3 0.2 0.2 0.3 0.2 0.3 0.3 0.2 0.3 0.2 0.2 0.3 0.2 0.3 0.3 0.2 0.5 1.5 0.5 1.5-1 9q-1 9-3.5 13t-8 8.5-8.5 11-3.7 8.7q-0.8 2.3-0.8 2.6v0.2h-0.5l-0.5 1-0.5 1-0.5 2-0.5 2-3 7.5q-3 7.5-3.5 17t-1 12 1 5 1.8 5.5q0.2 3-0.8 3t0.8 7q1.7 7 2.2 8l0.5 1 0.3 0.2 0.2 0.3 0.2 0.3 0.3 0.2 0.5 1 0.5 1 0.3 0.2 0.2 0.3 0.2 0.3 0.3 0.2v1l-0.3 1-0.2 1-0.5-0.2-0.5-0.3-0.2-0.3-0.3-0.2-0.5-1-0.5-1-0.3-0.2-0.2-0.3-0.2-0.3-0.3-0.2-0.5-1-0.5-1-0.3-0.2-0.2-0.3-0.2-0.3-0.3-0.2-0.5-1q-0.5-1-14.5-22t-14-26v-5l0.5-1.5 0.5-1.5v-3l-0.3-0.2-0.2-0.3v-0.5l15.8-59.5q15.7-59.5 16.2-66t2.8-14.5q2.2-8 3.2-8t1-1 4-0.8q4 0.3 48 16.8t44.2 16.8q0.3 0.2 0.6 1.2z" fill="#77d8fb" stroke="#77d8fb"/>
  <path d="m650.8 553.5l3.2-8.5v0.5l118.2 2.7q118.3 2.8 119 1 0.8-1.7 1.8-2l1-0.2-0.2 1q-0.3 1-0.8 2l-0.5 1-3 7.5q-3 7.5-3.3 10.5l-0.2 3h-0.5l-0.5 1-0.5 1-0.3-0.2-0.2-0.3-0.2-0.3-0.3-0.2-0.3-0.2-0.2-0.3-0.2-0.3-0.3-0.2-0.3-0.2q-0.2-0.3-1-1.6-0.7-1.2-3-2-2.2-0.7-20.7-0.7t-18 1.3q0.5 1.2-11 2.2l-11.5 1 0.2 1q0.3 1 0.3 2.5v1.5h-0.5l-0.2-0.5q-0.3-0.5-0.6-1.5-0.2-1-7.2-1.5t-7-2-2.5-1.7q-2.5-0.3-8-1-5.5-0.8-5.3 0.7 0.3 1.5-7.4 2.5-7.8 1-7.8 2t-7 0.5-7.5-2.7q-0.5-2.3-4.5-1-4 1.2-4 2.2t-8 2.2q-8 1.3-8 2.3t-14.5 5-19.5 4-6.5 1-4 1.3q-2.5 0.2-2.7 1.7-0.3 1.5-3.6 2.7l-3.2 1.3-0.2 0.3-0.3 0.2-0.3 0.2-0.2 0.3-1.5 0.3-1.5 0.2-2 0.2q-2 0.3-6 0.8t-5.5 1-7.5 1l-6 0.5h-3v-0.5h0.5l0.3-0.2 0.2-0.3 0.2-0.3 0.3-0.2 0.3-0.2 0.2-0.3 0.2-0.3 0.3-0.2 0.3-0.2q0.2-0.3 0.4-0.6 0.3-0.2 0.8-11.2t-2-15-0.5-6 5.3-10.5z" fill="#e8bfb2" stroke="#e8bfb2"/>
  <path d="m672 596.2l2-0.2v3l1 0.2 1 0.3 1 0.5 1 0.5h3l7-0.5q7-0.5 8.2-0.8 1.3-0.2 1.6 0.8 0.2 1 5.2-0.2 5-1.3 11.5-2.3t8.5-0.5 14.5 1 13.5 0.8q1 0.2 1.5 2.2t1.5 2 2.5 3.2q1.5 3.3 4.3 5.6 2.7 2.2 2.4 3.2-0.2 1 2 1.5 2.3 0.5 3 1.3 0.8 0.7 5.3 0.2t11-0.5h6.5l-0.8 0.7q-0.7 0.8-0.4 1l0.2 0.3 2.5 0.3 2.5 0.2 0.2 1.5 0.3 1.5v2l-0.3 0.2-0.2 0.3-1 0.5q-1 0.5-3 3l-2 2.5-0.2 0.3-0.3 0.2-0.3 0.2-0.2 0.3-0.2 0.3-0.3 0.2-0.3 0.2-0.2 0.3-0.2 0.3-0.3 0.2-0.3 0.2-0.2 0.3v0.5l-2 0.2q-2 0.3-5 1-3 0.8-3.8 2.3-0.7 1.5-13 5.7l-12.2 4.3-2 0.5-2 0.5 3.8 0.7q3.7 0.8 4.2 4.3t0.8 9.5l0.2 6h-22l-0.2-1q-0.3-1-0.6-6.5l-0.2-5.5 0.2-2q0.3-2 1-2.8l0.8-0.7-2.5-0.5q-2.5-0.5-4-1t-18.5-1.5-23.5-1.5-10.5 2l-4 2.5-1 0.5-1 0.5-1 0.5-1 0.5-1 0.3-1 0.2-0.5 0.2q-0.5 0.3-2 1.3l-1.5 1-1 0.5-1 0.5-0.2 0.3-0.3 0.2-0.3 0.2-0.2 0.3-0.5 0.3-0.5 0.2-0.2-8.5q-0.3-8.5-3.8-19t-8.8-18.3l-5.2-7.7-0.2-0.3-0.3-0.2-0.3-0.2-0.2-0.3-0.2-0.3-0.3-0.2-0.3-0.2-0.2-0.3-0.2-0.3-0.3-0.2-0.3-0.2-0.2-0.3-0.2-0.3-0.3-0.2-0.3-0.2-0.2-0.3v-0.5l2.5-0.2 2.5-0.3 1-0.5 1-0.5 1-0.3 1-0.2v0.5h3l6-0.5q6-0.5 7.5-1t5.5-1 6-0.8z" fill="#f6bda6" stroke="#f6bda6"/>
  <path d="m675.8 285.8l-0.3 0.2h-0.5l-5.5 0.2-5.5 0.3-0.2 0.3-0.3 0.2-0.3 0.2-0.2 0.3h-2l-0.2-0.3-0.3-0.2-0.5-5.5q-0.5-5.5-2-11t-7-14-8-9.5-3.2-2.8q-0.8-1.7-2-0.4-1.3 1.2-4.6 2.2-3.2 1-3.7-1l-0.5-2h-2l-0.2 2q-0.3 2-1 4.5-0.8 2.5-4.8 5.7-4 3.3-5 4.6-1 1.2-5 1.4-4 0.3-3.8-1.4 0.3-1.8-1.4 0.7-1.8 2.5-6 4.5-4.3 2-6 2.2-1.8 0.3-3.6 3-1.7 2.8-3.4 0.8-1.8-2-6.3 1.5l-4.5 3.5v3l-1.5-0.2-1.5-0.3-0.2-0.3-0.3-0.2v-3l0.5-1q0.5-1 0.8-1.2 0.2-0.3-0.6-4-0.7-3.8-2.4-7.3-1.8-3.5-2.8-3.7-1-0.3-2.2-7-1.3-6.8-5-9.6l-3.8-2.7h-3q-3 0-7.8 3.7-4.7 3.8-9.2 6.3t-7.5 3.5-5.3 6.8q-2.2 5.7-3.7 8.4-1.5 2.8 1 3 2.5 0.3-1.5 5-4 4.8-5 5-1 0.3-2.5 2.6-1.5 2.2-2.5 2.4-1 0.3-6.5 4.6l-5.5 4.2-0.2-0.5q-0.3-0.5-3.6 0l-3.2 0.5-0.2-1q-0.3-1-1.8-3.5t-2.8-3.5q-1.2-1-1-3.5 0.3-2.5-1-3-1.2-0.5-1.2 0.5t-1 1h-1l3.8-10.5q3.7-10.5 7.7-23.5t7.5-18.5 13.2-14.3q9.8-8.7 10.6-9.4 0.7-0.8 1-2.3 0.2-1.5 12.7-6.7 12.5-5.3 20.5-8.3t11-3 8 0 11.5 1 16.5 4.5 13.5 5.5 8 3.5 10 6 8.3 5.2q2.7 0.8 6.2 5.8t7 11 7.2 10.8q3.8 4.7 3 5.4-0.7 0.8 0.6 1.3 1.2 0.5 4.4 6.5 3.3 6 5 14.8 1.8 8.7 1.6 11.4-0.3 2.8 0 3.6 0.2 0.7-0.8 1-1 0.2-1 1.7t-1 1.7q-1 0.3-1.2 0.6zm-65.6-27q-0.2-0.3 0-0.6 0.3-0.2 0.3 0.3t-0.3 0.3zm67 16q-0.2-0.3 0-0.6 0.3-0.2 0.3 0.3t-0.3 0.3zm1 2q-0.2-0.3 0-0.6 0.3-0.2 0.3 0.3t-0.3 0.3z" fill="#3a3437" stroke="#3a3437"/>
  <path d="m613.8 699h0.2v2l3.5 1.8q3.5 1.7 4.7 3 1.3 1.2 0.6 4.4-0.8 3.3-3.6 6.6-2.7 3.2-3.2 9.2t-0.8 6.2l-0.2 0.3 0.2 0.3 0.3 0.2 0.5 4.5 0.5 4.5h0.5l-0.2 3.5q-0.3 3.5-1 5.3-0.8 1.7-2 4.4-1.3 2.8-0.8 12.3t4 15.5 4.8 7.2q1.2 1.3 8.7 3 7.5 1.8 9.7 6.3 2.3 4.5 2.3 6.5v2l0.5 1 0.5 1 0.3 0.2 0.2 0.3-1 0.5-1 0.5 0.2 0.3 0.3 0.2 0.3 1 0.2 1-2 0.2-2 0.3v0.5h-185l0.2-0.5 0.3-0.5 0.3-0.2 0.2-0.3 0.2-0.3 0.3-0.2 0.5-1.5 0.5-1.5 0.3-0.2 0.2-0.3 0.2-0.3 0.3-0.2 0.5-1q0.5-1 27-42.5t29.8-44.5l3.2-3 19-3.2q19-3.3 28.5-3.3t26.3 1.3q16.7 1.2 19.2-6.3t2.8-7.5z" fill="#f99f34" stroke="#f99f34"/>
  <path d="m490.8 293l0.2 1 3.2-0.5q3.3-0.5 3.6 0l0.2 0.5-0.2 0.5q-0.3 0.5-5 3.7-4.8 3.3-9.8 4.6-5 1.2-6 2.4l-1 1.3-0.2-0.3-0.3-0.2h-0.5l-0.2-1q-0.3-1-1-2.2-0.8-1.3-1.6-2l-0.7-0.8-0.3 1.5q-0.2 1.5-2.2 2.3-2 0.7-2.2 2l-0.3 1.2 10 25q10 25 17 52.5t7.5 29.5l0.5 2 0.3 0.2 0.2 0.3h2l1.5-0.5 1.5-0.5 3-1.5q3-1.5 3.5-1.8l0.5-0.2-1.5 1.8q-1.5 1.7-3 2-1.5 0.2-2.5 2-1 1.7-2 2-1 0.2 0.5 7.2t2.7 7.5q1.3 0.5 1.3 7t-0.3 8.5l-0.2 2h-2l-0.2-2-0.3-2-0.3 0.2-0.2 0.3-0.2 0.3-0.3 0.2-0.5 2.5-0.5 2.5-0.5 1-0.5 1h-0.5l-0.2-3-0.3-3-0.3-0.2q-0.2-0.3 0-1.6 0.3-1.2-2.7-11.2t-11.5-23-11.2-18.5q-2.8-5.5 0.2-6l3-0.5v-2h-2v-2l-1-0.2q-1-0.3-1.8-1-0.7-0.8-7.4-4.8-6.8-4-7-6-0.3-2-4.8-12l-4.5-10-0.5-1-0.5-1-0.3-0.2-0.2-0.3-0.2-0.3-0.3-0.2-0.5-1.5-0.5-1.5-0.3-0.2-0.2-0.3-0.2-0.3-0.3-0.2 0.5 7.5q0.5 7.5 9 26t8.5 20.5v2l-0.3-0.2-0.2-0.3-0.2-0.3-0.3-0.2-0.3 0.2-0.2 0.3-1 0.5-1 0.5 0.2 0.3 0.3 0.2v3l-0.3 0.2-0.2 0.3 0.2 0.3 0.3 0.2 0.3 0.2 0.2 0.3-1 0.3-1 0.2-0.2-1-0.3-1-0.3-0.2-0.2-0.3-0.2-0.3-0.3-0.2-0.5-1.5q-0.5-1.5-6.5-15t-11.3-21q-5.2-7.5-6.7-8.3-1.5-0.7-11-6.7l-9.5-6-0.2-0.3-0.3-0.2-0.3-0.2-0.2-0.3-2.5-0.5-2.5-0.5v-0.5l1-0.2 1-0.3 1.5-0.5q1.5-0.5 3.5-0.5h2l0.2 0.3 0.3 0.2 0.3-0.2 0.2-0.3 0.2-0.3 0.3-0.2 0.3-0.2 0.2-0.3-1.5-0.5-1.5-0.5-0.2-0.3-0.3-0.2-0.3-0.2-0.2-0.3-1-0.5q-1-0.5-1.2-0.8-0.3-0.2 0.2-1.2t-1.2-1.8l-1.8-0.7-1.5-0.5-1.5-0.5 3-0.5q3-0.5 2.8-1.2-0.3-0.8-1.6-1.6l-1.2-0.7 2.8-0.7q2.7-0.8 2.2-2.3t-0.8-1.7l-0.2-0.3-1-0.3-1-0.2v-2l1 0.2 1 0.3 0.2 0.3 0.3 0.2 0.3 0.2 0.2 0.3 0.5 0.3 0.5 0.2v0.5l0.2 0.3 0.3 0.2 0.3 0.2q0.2 0.3 0.7 0.6l0.5 0.2 3 2.2q3 2.3 5.5 2 2.5-0.2 6-4 3.5-3.7 4.5-4 1-0.2 1.2-3.7 0.3-3.5 11-10.3 10.8-6.7 15.3-6.4 4.5 0.2 4.3-1.3-0.3-1.5 2.2-5.5t6-8 3.8-4h0.4q0.3 0 0.6-0.5l0.2-0.5h1.8q1.7 0 2.4 3.8 0.8 3.7 1.8 4 1 0.2 1.8 2.2 0.7 2 1 3z" fill="#252833" stroke="#252833"/>
  <path d="m228.8 550.2l0.2 0.3 0.2 0.3 0.3 0.2 0.3 0.2 0.2 0.3 0.2 0.3 0.3 0.2 0.3 0.2 0.2 0.3 1.5 0.3 1.5 0.2-1.2 3.5q-1.3 3.5-1.6 4.5l-0.2 1-1-0.2q-1-0.3-1.5-0.3t-5.5-2.7q-5-2.8-5-3.8t-5-0.8q-5 0.3-7.8 2.6-2.7 2.2-5 2-2.2-0.3-2.7 0.4-0.5 0.8-4.3 3.8-3.7 3-7 4.8-3.2 1.7-3.7 3.4-0.5 1.8-2 1.8t-1.3 1q0.3 1-0.4 1.2-0.8 0.3-3.8 2.6l-3 2.2-0.2-0.5-0.3-0.5-0.3-0.2-0.2-0.3-0.2-0.3-0.3-0.2-0.3-0.2-0.2-0.3-0.2-0.3-0.3-0.2-0.3 0.2-0.2 0.3-0.2 0.3-0.3 0.2-0.3 0.2-0.2 0.3-0.2 0.3-0.3 0.2-0.3 0.2-0.2 0.3-0.2 0.3-0.3 0.2v2l-0.7 0.8q-0.8 0.7 1.2 1l2 0.2v0.2q0 0.3-0.5 0.6l-0.5 0.2v2l-0.5-0.2-0.5-0.3-0.2-0.3-0.3-0.2-0.3-0.2-0.2-0.3-0.2-0.3-0.3-0.2-0.3 0.2-0.2 0.3-0.2 0.3-0.3 0.2-0.3 0.2-0.2 0.3 1 0.3 1 0.2v2h-0.5l-0.3 0.2-0.2 0.3-0.2 0.3-0.3 0.2-0.3 0.2-0.2 0.3-0.2 0.3-0.3 0.2-0.5-1-0.5-1v-1q0-1 0.7-3.5 0.8-2.5-2.2-1.7-3 0.7-3.2 0-0.3-0.8-1.3-2.8t-1.3-1q-0.2 1-5.2 1t-5 1.5-3 0.7q-3-0.7-2.8 1 0.3 1.8 0 0.8-0.2-1-1.2-1t-1 2-1 2-1 1.5-4.5 0.5-4.7 0l-0.3 1-0.3-0.2q-0.2-0.3-0.4-1-0.3-0.8-1-1-0.8-0.3-1-1-0.3-0.8-1-1.6-0.8-0.7-1.6-4-0.7-3.2-1.2-1.2t-1.5-6-1.5-6.5-1 0l-0.5-1.5-0.3-0.2-0.2-0.3-0.2-0.3-0.3-0.2-0.3 0.2-0.2 0.3-1.5-0.5q-1.5-0.5-3 0.5t-8.3 4.7q-6.7 3.8-8.4 6-1.8 2.3-4 3.6-2.3 1.2-2.6 1.4l-0.2 0.3-0.2 0.3-0.3 0.2-0.3 0.2-0.2 0.3-1 0.5-1 0.5-0.2 0.3-0.3 0.2-0.3 0.2-0.2 0.3-1 0.3-1 0.2 0.2-1 0.3-1 0.3-0.2 0.2-0.3 0.2-0.3 0.3-0.2v-2l-0.3 0.2-0.2 0.3h-1v-0.5l0.2-0.5 0.3-0.5 0.5-1 0.5-1 0.3-0.2 0.2-0.3 12.5-12.5q12.5-12.5 29-20.5t26.5-10.5 25.5-2 26.3 4.2q10.7 3.8 19.2 9.3t8.8 5.7zm-104.6 33.8q-0.2-1 1.8-1t2 2-1.8 1q-1.7-1-2-2z" fill="#0f53ad" stroke="#0f53ad"/>
  <path d="m536.5 391.2l0.5-0.2 4.2 25.5q4.3 25.5 6 30.3 1.8 4.7 8 8 6.3 3.2 6.6 3.7l0.2 0.5-2.5-0.8q-2.5-0.7-6-0.4-3.5 0.2-4 2.4-0.5 2.3-1.7 1-1.3-1.2-5 28-3.8 29.3-5 35.6-1.3 6.2-1.8 8.7l-0.5 2.5v5l0.3 2 0.2 2-5 11.8q-5 11.7-10 16.7t-5.2 5.3l-0.3 0.2-0.3 0.2-0.2 0.3-0.2 0.3-0.3 0.2-0.3 0.2-0.2 0.3-0.2 0.3-0.3 0.2-0.3 0.2-0.2 0.3-0.2 0.3-0.3 0.2-0.3 0.2-0.2 0.3-0.2 0.3-0.3 0.2-0.3 0.2-0.2 0.3-0.2 0.3-0.3 0.2-0.3 0.2-0.2 0.3-0.5 0.3-0.5 0.2 0.2-1 0.3-1 0.5-2.5 0.5-2.5 0.5-3.5q0.5-3.5 0.5-7.5t-1.3-4.5q-1.2-0.5-1.7-6.5t-1.5-6-1-1.5-0.8-2q-0.7-0.5-2-1.7-1.2-1.3-0.4-2 0.7-0.8-0.3-5.3t-2.3-8l-1.2-3.5-0.2-12.5q-0.3-12.5-0.3-16.5t2.3-22.5l2.2-18.5h0.5l0.5-1 0.5-1 0.5-2.5 0.5-2.5 0.3-0.2 0.2-0.3 0.2-0.3 0.3-0.2 0.3 2 0.2 2h2l0.2-2q0.3-2 0.6-7.5 0.2-5.5-0.8-5.5t-0.8-1q0.3-1-0.4-1.5-0.8-0.5-2.3-7.5t-0.5-7.2q1-0.3 2-2 1-1.8 2.5-2 1.5-0.3 3-2l1.5-1.8 4.2-4q4.3-4 5.6-5.2 1.2-1.3 1.7-0.8t1.5 0.8l1 0.2 0.2 1.5 0.3 1.5 0.3-5 0.2-5v-0.5l3.5-2q3.5-2 4-2.3z" fill="#0f1015" stroke="#0f1015"/>
  <path d="m224.8 618.8l0.7-1.8 0.3 0.2 0.2 0.3h2l0.2-0.3 0.3-0.2 0.5 2 0.5 2 0.3 0.2 0.2 0.3-0.2 0.3-0.3 0.2 0.5 7.5q0.5 7.5 5.2 20.7 4.8 13.3 6.6 17 1.7 3.8 1.4 4.8-0.2 1 1.6 1.5 1.7 0.5 2.2 1.5t1 2.5l0.5 1.5 0.3 2 0.2 2 1 0.2 1 0.3-0.2 0.3-0.3 0.2-0.3 0.2-0.2 0.3h-5l-0.2-0.3-0.3-0.2-0.5-1.5q-0.5-1.5-1.8-2.3-1.2-0.7-0.2-1.2t0-1-3.5-4.2q-2.5-3.8-4-3.6l-1.5 0.3-1 0.5-1 0.5 0.2 0.3 0.3 0.2 0.5 1 0.5 1 0.3 0.2 0.2 0.3-0.2 0.3-0.3 0.2-0.3 0.2-0.2 0.3h-2l-0.2-0.3-0.3-0.2-0.5-2-0.5-2-0.3-1-0.2-1-1-0.2-1-0.3-0.2-0.3-0.3-0.2-0.5-1-0.5-1v3l0.5 1 0.5 1 0.3 0.2 0.2 0.3 0.2 0.3 0.3 0.2 0.3 0.2 0.2 0.3-0.2 0.3-0.3 0.2 3.5 14q3.5 14 5.5 18.5t5.3 15.3q3.2 10.7 7.2 10.7t5 0h1l0.2 0.3 0.3 0.2v10l-0.3 3-0.2 3h-0.5l-0.3 0.5-0.2 0.5-5 0.2q-5 0.3-24.5 3.8l-19.5 3.5-1.5 0.3-1.5 0.2-0.2-8q-0.3-8-1-16.5l-0.8-8.5-0.2-1.5-0.3-1.5-0.3-0.2-0.2-0.3h-5l-1 0.5q-1 0.5-4 2t-8.5 1.5h-5.5l-0.2-0.3-0.3-0.2-0.5-1.5q-0.5-1.5-1.5-10t0-17.5 5.5-18.5 11.2-18.5q6.8-9 8.3-9.8 1.5-0.7 10-13.4l8.5-12.8h3l0.2 1 0.3 1 0.5 1 0.5 1 0.3-0.2 0.2-0.3 1-0.3 1-0.2v-2q0-2 1-2.2 1-0.3 1.8-2zm6.4 46l-0.2-0.3h2l0.2 0.3 0.3 0.2 0.3 1.5q0.2 1.5-0.8 1.5t-1.2-1.5l-0.3-1.5-0.3-0.2zm13.8 14.2q0-1 1-1t1 1-1 1-1-1z" fill="#11141b" stroke="#11141b"/>
  <path d="m195.8 722.8l0.2-0.3 1-0.3 1-0.2 0.2 1 0.3 1h0.5l0.8 8.5q0.7 8.5 1 16.5l0.2 8 1.5-0.2 1.5-0.3 19.5-3.5q19.5-3.5 24.5-3.8l5-0.2 0.5-0.2q0.5-0.3 0.5-0.6v-0.2h8v0.5l0.2 0.3 0.3 0.2 0.3 0.2 0.2 0.3 2 0.5 2 0.5 0.2 0.3 0.3 0.2 0.3 0.2 0.2 0.3 0.2 0.3 0.3 0.2 0.7 2q0.8 2 3.8 2.5t3 1.5 2.2 2q2.3 1 3 1.8 0.8 0.7 1.8 0.4 1-0.2 1.5 1.6 0.5 1.7 1.3 2.4 0.7 0.8 2 1.3 1.2 0.5 1.2 1.5t5.2 3q5.3 2 5.8 3.5t0.8 1.3l0.2-0.3h2l0.2 0.3 0.3 0.2 0.3 0.2 0.2 0.3 0.2 0.3 0.3 0.2 0.3 0.2 0.2 0.3 0.2 0.3 0.3 0.2 0.3 0.2 0.2 0.3 0.2 0.3 0.3 0.2 0.3 0.2 0.2 0.3 0.2 0.3 0.3 0.2 0.3 0.2 0.2 0.3h-6q-4 0-35.5 0.5l-31.5 0.5-0.2 0.3-0.3 0.2-0.3 0.2-0.2 0.3-0.2 0.3-0.3 0.2-0.3 0.5-0.2 0.5-3 0.2q-3 0.3-11.5 0.8t-11.5 1.5-12 2.5-12 3.8q-3 2.2-2 0.4 1-1.7-6-0.4-7 1.2-7 2.2t1 1.2q1 0.3-1 0.8t-1 1l1 0.5-1.5 0.5-1.5 0.5-0.2 0.3-0.3 0.2-0.3 0.2-0.2 0.3-0.5 0.3-0.5 0.2-0.2-1q-0.3-1-1.6-4-1.2-3-5.7-3.2-4.5-0.3-5.7-2l-1.3-1.8v-2.5q0-2.5 1-4.5t4.5-5.5 4-12.5l0.5-9h0.5v-2h0.2q0.3 0 0.6-1.5l0.2-1.5 1 0.2 1 0.3h2q2 0 0.5-0.5t5.5-1.5 14.2-7.3q7.3-6.2 7.8-10.7t1.5-6l1-1.5 0.3-0.2 0.2-0.3 0.2-0.3 0.3-0.2 0.3-0.2z" fill="#2f3843" stroke="#2f3843"/>
  <path d="m939.5 689.2l0.5-0.2 2 4.8q2 4.7 3.5 7 1.5 2.2 2.5 2.2t1.2 1.5q0.3 1.5 0.8 2.5l0.5 1 0.3 0.2 0.2 0.3 0.5 0.3 0.5 0.2 3.2 7q3.3 7 7.8 25.5t11 37.5 8.2 21.8q1.8 2.7 1 3.4-0.7 0.8 1 1.8 1.8 1 1.8 2t1 1h1l-0.2 1-0.3 1-0.3 0.2-0.2 0.3 1 0.5 1 0.5 1 0.5 1 0.5-0.2 0.3-0.3 0.2-0.3 0.2-0.2 0.3v0.5h-66l-0.2-0.5-0.3-0.5-0.3-0.2-0.2-0.3 2.5-0.3 2.5-0.2-0.2-2q-0.3-2-4.3-12.5t-4-25-2.5-20.5-7.8-10.2q-5.2-4.3-11.2-5.3t-9-2.5-5-3.8q-2-2.2-14-5-12-2.7-32.5-5.7t-24-5-4.5-3.3q-1-1.2-3.5-1.2h-2.5l-0.2-0.5q-0.3-0.5-2.8-3l-2.5-2.5-0.3-0.2-0.2-0.3-0.2-0.3-0.3-0.2-0.5-1-0.5-1-0.3 0.2-0.2 0.3-0.2 0.3-0.3 0.2-0.5-1.5-0.5-1.5-0.3-1-0.2-1 65.5 0.2q65.5 0.3 71.5-2.7t7.5-4.5 2-1.8z" fill="#f19f54" stroke="#f19f54"/>
  <path d="m230 785.2l3-0.2 22 0.5q22 0.5 22 1.5t20 3.2q20 2.3 30.5 6.3t15.5 7 5.2 3.3l0.3 0.2 0.3 0.2 0.2 0.3 0.2 0.3 0.3 0.2 0.3 0.2 0.2 0.3 0.2 0.3 0.3 0.2 0.3 0.2 0.2 0.3 0.2 0.3 0.3 0.2 0.3 0.2 0.2 0.3 0.2 0.3 0.3 0.2 0.3 0.2 0.2 0.3 0.2 0.3 0.3 0.2 0.3 1.5 0.2 1.5h-188l-0.2-0.5-0.3-0.5-0.3-0.2-0.2-0.3 0.2-0.3 0.3-0.2v-3l-0.3-0.2-0.2-0.3-0.2-0.3-0.3-0.2-0.5-2.5q-0.5-2.5-0.8-2.7-0.2-0.3-0.2-1v-0.8l0.5-0.2 0.5-0.3 0.2-0.3 0.3-0.2 0.3-0.2 0.2-0.3 1.5-0.5 1.5-0.5-1-0.5q-1-0.5 1-1t1-0.8q-1-0.2-1-1.2t7-2.2q7-1.3 18-3.3t14-3 11.5-1.5 11.5-0.8zm-49.8 10q0.3-0.2 0.6 0 0.2 0.3-0.3 0.3t-0.3-0.3z" fill="#0c0e13" stroke="#0c0e13"/>
  <path d="m921 670.2v-0.2h1l5.5 1q5.5 1 5 3t3.3 2.5q3.7 0.5 4 2.7 0.2 2.3 0.4 2.6l0.3 0.2 0.3 0.2 0.2 0.3 1 0.3 1 0.2-0.2 0.5-0.3 0.5-0.5 1-0.5 1-0.5 1-0.5 1-0.3 0.2-0.2 0.3v0.5l-0.5 0.2q-0.5 0.3-2 1.8t-7.5 4.5-71.5 2.7l-65.5-0.2-7.5-0.2q-7.5-0.3-48.5-1.6l-41-1.2-0.2-0.5-0.3-0.5-0.3-0.2-0.2-0.3-0.2-0.3-0.3-0.2-0.3-0.2-0.2-0.3-1.5-0.5-1.5-0.5-0.2-0.3-0.3-0.2-0.3-0.2q-0.2-0.3-2.2-3.3l-2-3 0.2-0.3 0.3-0.2v-1l-0.3-0.2-0.2-0.3-0.2-0.3-0.3-0.2-0.3-0.2-0.2-0.3 1-0.5 1-0.5-1.5-0.5-1.5-0.5-0.2-0.3-0.3-0.2-0.3-0.2-0.2-0.3 0.2-0.3 0.3-0.2 0.3-0.2 0.2-0.3 1-0.3 1-0.2 112.5-0.5q112.5-0.5 113-1.7 0.5-1.3 1.5-1.8l1-0.5 2.5-0.5q2.5-0.5 2.5-0.8v-0.2l1-0.2q1-0.3 1-0.6z" fill="#191415" stroke="#191415"/>
  <path d="m882.2 571.8l0.3 0.2 0.3 0.2 0.2 0.3 0.2 0.3 0.3 0.2 0.3 0.2 0.2 0.3 0.2 0.3 0.3 0.2 0.5-1 0.5-1h0.5v2q0 2-1 2t1.2 6q2.3 6 12.6 23.8 10.2 17.7 16.7 31.2t7.5 15.5-1.2 3.3q-2.3 1.2-0.6 3.4 1.8 2.3 3.6 3 1.7 0.8 1.7 1.3v0.5l-0.3 0.2-0.2 0.3 0.2 0.3 0.3 0.2v1l-0.5 1-0.5 1-0.3 0.2-0.2 0.3-1.5 0.5-1.5 0.5v0.5h-1l-1 0.2q-1 0.3-1 0.6v0.2l-0.5-0.2q-0.5-0.3-3-0.3h-2.5l-0.2 0.3-0.3 0.2-0.3-0.2-0.2-0.3h-1.5q-1.5 0-11 0.5t-12-2.2q-2.5-2.8-6.5-3.6-4-0.7-7-1.2t-3.8-1.8q-0.7-1.2-2.4-3-1.8-1.7-5-9-3.3-7.2-5-6.7-1.8 0.5-2 2-0.3 1.5-1.3-0.5t-7.7-2.5l-6.8-0.5-0.2-1.5-0.3-1.5-0.3-1-0.2-1h2v3l8-0.2 8-0.3 0.2-0.3 0.3-0.2v-3l-0.5-1-0.5-1-0.5-1.5q-0.5-1.5-5.2-13-4.8-11.5-9.3-11.7l-4.5-0.3 2.5-0.3q2.5-0.2 2.3-1.2l-0.3-1-0.3-0.2-0.2-0.3 0.2-0.3 0.3-0.2 0.3-0.2 0.2-0.3-2.5-0.5q-2.5-0.5-7-1l-4.5-0.5-0.2-0.3-0.3-0.2v-2l0.3-0.2 0.2-0.3 3-0.5q3-0.5 4-1l1-0.5-0.2-0.3-0.3-0.2-0.3-1.5-0.2-1.5-1.5-0.2-1.5-0.3-2.5-0.5q-2.5-0.5-2-1.8 0.5-1.2-2-1.4-2.5-0.3-3-1.6-0.5-1.2-1.5-1.2t-2.5-1.8q-1.5-1.7-0.5-2 1-0.2 0.8-1.2l-0.3-1-0.5-1-0.5-1-0.3-0.2-0.2-0.3v-0.5h0.5v-2h-0.5v-3l11.5-1q11.5-1 11-2.2-0.5-1.3 18-1.3t20.7 0.7q2.3 0.8 3 2 0.8 1.3 1 1.6z" fill="#656c76" stroke="#656c76"/>
  <path d="m664.5 654.2l0.5-0.2-0.2 1-0.3 1-0.3 0.2-0.2 0.3h2l2-1q2-1 3.5-1.3l1.5-0.2-0.2 1-0.3 1-1 5q-1 5 0 17.5t7.3 14.3q6.2 1.7 11.7 2l5.5 0.2 41 1.2q41 1.3 48.5 1.6l7.5 0.2 0.2 1 0.3 1 0.5 1.5 0.5 1.5 0.3-0.2 0.2-0.3 0.2-0.3 0.3-0.2 0.5 1 0.5 1 0.3 0.2 0.2 0.3 0.2 0.3 0.3 0.2 2.5 2.5q2.5 2.5 2.8 3l0.2 0.5-0.2 0.5q-0.3 0.5-0.8 0t-3.8-1.5q-3.2-1-3.2 0t-2.5 0.2q-2.5-0.7-7.5 1.8t-15.5 2.5-14 0.5-5 0-6.3-0.8q-4.7-0.2-6.4-0.2-1.8 0-2-1-0.3-1-5 1.2-4.8 2.3-6.8 4.3t-8 3.7q-6 1.8-6.2 2.8-0.3 1-2.8 0t-5.8 0.2q-3.2 1.3-4 2-0.7 0.8-3 1.6-2.2 0.7-3.4 2-1.3 1.2-8.6 5-7.2 3.7-12.2 2.7t-6.2-2.7q-1.3-1.8-3.6-3-2.2-1.3-4-4.6-1.7-3.2-4.4-4-2.8-0.7-14.3 4.3t-14.5 5.3q-3 0.2-3.5 1.4l-0.5 1.3-0.2 0.3-0.3 0.2-0.5 1-0.5 1-0.3 1.5-0.2 1.5h-0.5l-0.5-4.5-0.5-4.5-0.3-0.2-0.2-0.3 0.2-0.3q0.3-0.2 0.8-6.2t3.2-9.2q2.8-3.3 3.6-6.6 0.7-3.2-0.6-4.4-1.2-1.3-4.7-3l-3.5-1.8v-7l1.5-0.2 1.5-0.3 1.5-0.5 1.5-0.5 8.5-3.5q8.5-3.5 17.7-13.2 9.3-9.8 9.8-10.8t0.8-3.5l0.2-2.5 0.5-0.2 0.5-0.3 0.2-0.3 0.3-0.2 0.3-0.2 0.2-0.3 1-0.5 1-0.5 1.5-1q1.5-1 2-1.3z" fill="#f19532" stroke="#f19532"/>
  <path d="m323 749.8l5 0.2v0.5l21 4.5q21 4.5 23 5l2 0.5h1l0.2-0.3 0.3-0.2v3l-0.3-0.2-0.2-0.3-2-0.5-2-0.5-0.2-0.3-0.3-0.2-0.3 0.2-0.2 0.3-0.2 0.3-0.3 0.2-0.3 0.2-0.2 0.3 0.2 0.3 0.3 0.2 0.3 0.2 0.2 0.3h2l0.2-0.3 0.3-0.2 0.5 1 0.5 1 0.3 0.2 0.2 0.3 0.2 0.3 0.3 0.2 0.3 0.2 0.2 0.3 2-0.5q2-0.5 1-0.8-1-0.2-1-1.2t8.2 3.5q8.3 4.5 12.8 9t5 5.5l0.5 1 0.3 0.2 0.2 0.3 0.2 0.3 0.3 0.2 0.5 1 0.5 1 0.3 1.5 0.2 1.5-1-0.2-1-0.3-0.2-0.3-0.3-0.2-0.7-0.2q-0.8-0.3-7.3 2-6.5 2.2-6 7.2t-1 5.8q-1.5 0.7-0.3 1.4 1.3 0.8 0 1.3-1.2 0.5-0.4 3.5 0.7 3 0.4 4l-0.2 1 2 0.2 2 0.3v0.5h-38l-0.2-1.5-0.3-1.5-0.3-0.2-0.2-0.3-0.2-0.3-0.3-0.2-0.3-0.2-0.2-0.3-0.2-0.3-0.3-0.2-0.3-0.2-0.2-0.3-0.2-0.3-0.3-0.2-0.3-0.2-0.2-0.3-0.2-0.3-0.3-0.2-0.3-0.2-0.2-0.3-0.2-0.3-0.3-0.2-0.3-0.2q-0.2-0.3-5.2-3.3t-15.5-7-30.5-6.3q-20-2.2-20-3.2t-22-1.5l-22-0.5 0.2-0.5 0.3-0.5 0.3-0.2 0.2-0.3 0.2-0.3 0.3-0.2 0.3-0.2 0.2-0.3 31.5-0.5q31.5-0.5 35.5-0.5h6l-0.2-0.3-0.3-0.2-0.3-0.2-0.2-0.3-0.2-0.3-0.3-0.2-0.3-0.2-0.2-0.3-0.2-0.3-0.3-0.2-0.3-0.2-0.2-0.3-0.2-0.3-0.3-0.2-0.3-0.2-0.2-0.3-0.2-0.3-0.3-0.2-0.3-0.2-0.2-0.3h-2l-0.2 0.3q-0.3 0.2-0.8-1.3t-5.8-3.5q-5.2-2-5.2-3t-1.2-1.5q-1.3-0.5-4.3-3.5t-5.3-4q-2.2-1-2.2-2t-3-1.5-3.8-2.5l-0.7-2-0.3-0.2-0.2-0.3-0.2-0.3-0.3-0.2-0.3-0.2-0.2-0.3-2-0.5-2-0.5-0.2-0.3-0.3-0.2-0.3-0.2-0.2-0.3v-0.5l21.5 0.2q21.5 0.3 28 0.8t11.5 0.8z" fill="#15181c" stroke="#15181c"/>
  <path d="m1029.8 430h1.2l-0.5 5.8q-0.5 5.7-0.7 10-0.3 4.2-17.8 65.2t-17.8 62.5l-0.2 1.5-16.8 53q-16.7 53-17.2 53.5t-1 1.5l-0.5 1-0.3 0.2-0.2 0.3-0.2 0.3-0.3 0.2-0.3 0.2-0.2 0.3-0.2 0.3-0.3 0.2-0.3 0.2-0.2 0.3-2.5 0.3-2.5 0.2-0.2-1q-0.3-1-2.3-4.5l-2-3.5-0.3-0.2-0.2-0.3-0.2-0.3-0.3-0.2-0.5 1-0.5 1-0.5 1.5-0.5 1.5-0.3 0.2-0.2 0.3v0.5l-1-0.2-1-0.3-0.2-0.3-0.3-0.2-0.3-0.2q-0.2-0.3-0.4-2.6-0.3-2.2-4-2.7-3.8-0.5-3.3-2.5t-5-3l-5.5-1v-0.5l1.5-0.5 1.5-0.5 0.2-0.3 0.3-0.2 0.5-1 0.5-1v-1l-0.3-0.2-0.2-0.3 0.2-0.3 0.3-0.2v-0.5q0-0.5-1.7-1.3-1.8-0.7-3.6-3-1.7-2.2 0.6-3.4 2.2-1.3 1.2-3.3t-7.5-15.5-16.7-31.2q-10.3-17.8-12.6-23.8-2.2-6-1.2-6t1-2v-2l0.2-3q0.3-3 3.3-10.5l3-7.5 0.3-1.5 0.2-1.5h0.5l0.3-0.5 0.2-0.5 0.2-1.5 0.3-1.5h0.5v0.5l0.2 0.3 0.3 0.2v3l-0.5 1.5-0.5 1.5v5q0 5 14 26t14.5 22l0.5 1 0.3 0.2 0.2 0.3 0.2 0.3 0.3 0.2 0.5 1 0.5 1 0.3 0.2 0.2 0.3 0.2 0.3 0.3 0.2 0.5 1 0.5 1 0.3 0.2 0.2 0.3 0.5 0.3 0.5 0.2 10.2 16q10.3 16 10.8 17l0.5 1 0.5 1 0.5 1 0.3 0.2 0.2 0.3 0.2 0.3 0.3 0.2 0.5 1 0.5 1 0.3 0.2 0.2 0.3 1 0.3 1 0.2 0.2-2 0.3-2 0.5-1.5 0.5-1.5 0.5-1.5q0.5-1.5 18.8-62.5l18.2-61h0.5l0.5-1.5 0.5-1.5 0.5-2 0.5-2 0.5-1q0.5-1 4.2-11 3.8-10 4.8-10.2 1-0.3 9.2-28.6 8.3-28.2 10.3-30.2t3.3-2z" fill="#21242d" stroke="#21242d"/>
  <path d="m471.2 301.5l0.3-1.5 0.7 0.8q0.8 0.7 1.6 2 0.7 1.2 1 2.2l0.2 1 0.2 1 0.3 1 2 5.5q2 5.5 10 14t16.5 23 13.5 27 5.5 14.5l0.5 2 0.3 1.5 0.2 1.5 1-0.2 1-0.3 1.5-0.3 1.5-0.2-0.2 5-0.3 5-0.3-1.5-0.2-1.5-1-0.2q-1-0.3-1.5-0.8t-1.7 0.8q-1.3 1.2-5.6 5.2l-4.2 4-0.5 0.2q-0.5 0.3-3.5 1.8l-3 1.5-1.5 0.5-1.5 0.5h-2l-0.2-0.3-0.3-0.2-0.5-2q-0.5-2-7.5-29.5t-17-52.5l-10-25 0.3-1.2q0.2-1.3 2.2-2 2-0.8 2.2-2.3z" fill="#f9f9fc" stroke="#f9f9fc"/>
  <path d="m646.8 326l2.2-2-1.2 2.5q-1.3 2.5 0.7 10.5t4.5 28 3.5 37 8.5 22 8 6l0.5 1v6l-6.3 4.8q-6.2 4.7-7.4 6-1.3 1.2-2.6 4.4-1.2 3.3-1 6 0.3 2.8 0.6 3.8 0.2 1 1.2 1t0.8 1q-0.3 1-0.6 3l-0.2 2-1-0.2-1-0.3-0.2-0.3-0.3-0.2-0.3 1.5-0.2 1.5-1-0.2-1-0.3-0.2-0.3-0.3-0.2-0.3-0.2q-0.2-0.3-1.7-0.8t-1.7-3.2q-0.3-2.8-1-1.3-0.8 1.5-2.8 1.3-2-0.3-15.8-6.6-13.7-6.2-15.4-9.7-1.8-3.5-2.8-3.5t-1.5-3l-0.5-3h1q1 0 1.2-8 0.3-8-0.7-20t-3.3-17.5l-2.2-5.5-0.2-0.5q-0.3-0.5-0.6-0.5h-0.2l-0.2-0.5q-0.3-0.5-0.6-0.5h-0.2l-0.2-0.5q-0.3-0.5-0.6-0.5h-0.2l1.5-1.2q1.5-1.3 0-1.6-1.5-0.2-0.5-3 1-2.7 5-3l4-0.2 0.2-1 0.3-1 0.5-1q0.5-1-0.2-3l-0.8-2h-2v-2l1 0.2 1 0.3 2.2 1.3q2.3 1.2 2.6 2.2 0.2 1 2-0.5 1.7-1.5 1-2.3-0.8-0.7 3.2-2.4 4-1.8 7.2-5.8 3.3-4 3.6-6 0.2-2 2.4-1 2.3 1 2.6 1.2l0.2 0.3 0.2 0.3 0.3 0.2v-2l-0.3-0.2-0.2-0.3-0.2-0.3-0.3-0.2-0.5-1.5q-0.5-1.5-1.2-5.7-0.8-4.3 0.7-4.8t2-1.2q0.5-0.8 1.5-0.8t2.2-5q1.3-5 3.6-7z" fill="#d9bdb5" stroke="#d9bdb5"/>
  <path d="m816.5 574.8l0.5 0.2v2.5l0.2 0.3 0.3 0.2 0.5 1 0.5 1 0.3 1q0.2 1-0.8 1.2-1 0.3 0.5 2 1.5 1.8 2.5 1.8t1.5 1.2q0.5 1.3 3 1.6 2.5 0.2 2 1.4-0.5 1.3 2 1.8l2.5 0.5 1.5 0.3 1.5 0.2 0.2 1.5 0.3 1.5 0.3 0.2 0.2 0.3-1 0.5q-1 0.5-4 1l-3 0.5-0.2 0.3-0.3 0.2v2l0.3 0.2 0.2 0.3 4.5 0.5q4.5 0.5 7 1l2.5 0.5-0.2 0.3-0.3 0.2-0.3 0.2-0.2 0.3 0.2 0.3 0.3 0.2 0.3 1q0.2 1-2.3 1.2l-2.5 0.3 4.5 0.3q4.5 0.2 9.3 11.7 4.7 11.5 5.2 13l0.5 1.5 0.5 1 0.5 1v3l-0.3 0.2-0.2 0.3-8 0.3-8 0.2v-3h-2l-0.2-0.5q-0.3-0.5-0.6-0.7-0.2-0.3-5.2-1-5-0.8-5.8 1.2-0.7 2-5 2.2-4.2 0.3-7.4-1-3.3-1.2-14.6-2l-11.2-0.7-1.5 0.3-1.5 0.2v-0.5l0.2-0.3 0.3-0.2 0.3-0.2 0.2-0.3 0.2-0.3 0.3-0.2 0.3-0.2 0.2-0.3 0.2-0.3 0.3-0.2 0.3-0.2 0.2-0.3 2-2.5q2-2.5 3-3l1-0.5 0.2-0.3 0.3-0.2v-2l-0.3-1.5-0.2-1.5-2.5-0.2-2.5-0.3-0.2-0.3q-0.3-0.2 0.4-1l0.8-0.7h-6.5q-6.5 0-11 0.5t-5.3-0.2q-0.7-0.8-3-1.3-2.2-0.5-2-1.5 0.3-1-2.4-3.2-2.8-2.3-4.3-5.6-1.5-3.2-2.5-3.2t-1.5-2-1.5-2.2q-1-0.3-13.5-0.8t-14.5-1-8.5 0.5-11.5 2.3q-5 1.2-5.2 0.2-0.3-1-1.6-0.8-1.2 0.3-8.2 0.8l-7 0.5h-3l-1-0.5-1-0.5-1-0.3-1-0.2v-3l1.5-0.2 1.5-0.3 0.2-0.3 0.3-0.2 0.3-0.2 0.2-0.3 3.2-1.3q3.3-1.2 3.6-2.7 0.2-1.5 2.7-1.7 2.5-0.3 4-1.3t7.5-1.5 19.5-4 13.5-4.5 8-2.3q8-1.2 8-2.2t4-2.2q4-1.3 4.5 1 0.5 2.2 7.5 2.7t7-0.5 7.8-2q7.7-1 7.4-2.5-0.2-1.5 5.3-0.7 5.5 0.7 8 1 2.5 0.2 2.5 1.7t7 2.3q7 0.7 7.5 1z" fill="#e3a894" stroke="#e3a894"/>
  <path d="m731.5 651l2.5 0.5-0.8 0.7q-0.7 0.8-1 2.8l-0.2 2-0.5 0.2-0.5 0.3-0.2 0.3-0.3 0.2-0.3 0.2-0.2 0.3-0.2 0.3-0.3 0.2-0.3 0.2-0.2 0.3-0.2 0.3q-0.3 0.2-0.6 1.2-0.2 1-8.2 2.8-8 1.7-17.5 5.2l-9.5 3.5-1.5 0.5-1.5 0.5-1.5 0.5-1.5 0.5-1 0.5-1 0.5 0.2 0.3 0.3 0.2 0.3 0.5 0.2 0.5-1 0.2-1 0.3-0.2 0.3-0.3 0.2-0.3 0.2-0.2 0.3 0.2 0.3 0.3 0.2 0.3 0.2 0.2 0.3 1.5 0.5 1.5 0.5-1 0.5-1 0.5 0.2 0.3 0.3 0.2 0.3 0.2 0.2 0.3 0.2 0.3 0.3 0.2v1l-0.3 0.2-0.2 0.3 2 3q2 3 2.2 3.3l0.3 0.2 0.3 0.2 0.2 0.3 1.5 0.5 1.5 0.5 0.2 0.3 0.3 0.2 0.3 0.2 0.2 0.3 0.2 0.3 0.3 0.2 0.3 0.5 0.2 0.5-5.5-0.2q-5.5-0.3-11.7-2-6.3-1.8-7.3-14.3t0-17.5l1-5 0.3-1 0.2-1-1.5 0.2q-1.5 0.3-3.5 1.3l-2 1h-2l0.2-0.3 0.3-0.2 0.3-1 0.2-1 1-0.2 1-0.3 1-0.5 1-0.5 1-0.5 1-0.5 4-2.5q4-2.5 10.5-2t23.5 1.5 18.5 1.5 4 1z" fill="#1e120f" stroke="#1e120f"/>
  <path d="m787.5 634.8l1.5-0.3 11.2 0.7q11.3 0.8 14.6 2 3.2 1.3 7.4 1 4.3-0.2 5-2.2 0.8-2 5.8-1.2 5 0.7 5.2 1 0.3 0.2 0.6 0.7l0.2 0.5 0.2 1 0.3 1 0.3 1.5 0.2 1.5 6.8 0.5q6.7 0.5 7.7 2.5t1.3 0.5q0.2-1.5 2-2 1.7-0.5 5 6.7 3.2 7.3 5 9 1.7 1.8 2.4 3 0.8 1.3 3.8 1.8t7 1.2q4 0.8 6.5 3.6 2.5 2.7 12 2.2t11-0.5h1.5l0.2 0.3 0.3 0.2 0.3-0.2 0.2-0.3 4-0.3 4-0.2-0.2 0.5-0.3 0.5-0.3 0.2-0.2 0.3-3 0.5-3 0.5-1 0.5q-1 0.5-1.5 1.8-0.5 1.2-113 1.7l-112.5 0.5-0.2-0.5-0.3-0.5-0.3-0.2-0.2-0.3 1-0.5 1-0.5 1.5-0.5 1.5-0.5 1.5-0.5 1.5-0.5 9.5-3.5q9.5-3.5 17.5-5.2 8-1.8 8.2-2.8 0.3-1 0.6-1.2l0.2-0.3 0.2-0.3 0.3-0.2 0.3-0.2 0.2-0.3 0.2-0.3 0.3-0.2 0.3-0.2 0.2-0.3 0.5-0.3 0.5-0.2 0.2 5.5q0.3 5.5 0.6 6.5l0.2 1h22l-0.2-6q-0.3-6-0.8-9.5t-4.2-4.3l-3.8-0.7 2-0.5 2-0.5 12.2-4.3q12.3-4.2 13-5.7 0.8-1.5 3.8-2.3 3-0.7 5-1l2-0.2 1.5-0.2z" fill="#3b3438" stroke="#3b3438"/>
 </g>
</svg>
