<?xml version='1.0' encoding='utf-8'?>
<svg xmlns="http://www.w3.org/2000/svg" width="1528px" height="1092px" version="1.1" viewBox="-224 512 1528 1092"> <g fill="#30aee8"> <path d="m-224 511.22c-0.20562 0-0.40282 0.08168-0.54821 0.22706s-0.22708 0.34259-0.22708 0.54822l0.00101 1092c0 0.4282 0.3471 0.7753 0.77528 0.7753l1528 9e-4c0.2055 0 0.4028-0.0816 0.5482-0.227s0.227-0.3427 0.227-0.5482l-9e-4 -1092c0-0.42816-0.3471-0.77527-0.7753-0.77527l-1528-0.00101z"/> </g> <g> <g fill-opacity=".4902"> <path d="m33.741 1439.5 4.6106 2.338q14.569 3.1396 54.08 5.7204 19.755 1.2904 45.746 2.441 9.0983 0.6624 92.002 3.138 35.589 0.9399 73.986 1.6319 98.451 1.5122 121.51 1.5164 85.22 0.6387 181.67 0.2832 92.053-0.4972 167.72-1.8451 37.835-0.6736 71.574-1.5603 19.429-0.3103 92.002-3.1382 123.22-5.8329 102.34-12.123-9.1778-3.1319-45.437-5.7785-18.13-1.323-43.03-2.5243-8.6196-0.6907-89.131-3.3043-133.8-3.8583-324.58-4.0224-47.694 0.041-91.828 0.3129-24.292-0.0084-124.39 1.3359-77.585 1.2367-140.93 3.3974-73.252 2.8065-79.778 3.5135-21.515 1.2623-36.259 2.6461-29.489 2.7681-31.896 6.0211"/> </g> <g fill="#100a43"> <path d="m576.61 950.49-9.8654 6.4e-4 -9.8654 4e-4q-7e-5 233.52-4.3e-4 467.04 9.8656 7e-4 19.731 0.0011 3e-4 -233.52 3.7e-4 -467.04"/> </g> <g> <path d="m935.19 701.38q10.992 0.1028 21.612 6.7976 10.33 6.7764 15.059 16.959 8.0818 17.564-1.9497 51.809l-70.664-8.9623q-1.9573-17.436-0.84814-26.369 1.1213-10.534 5.702-18.966 11.819-20.695 30.973-21.268"/> <path d="m970.19 1103.9c-7.5215 30.69-12.348 62.386-14.48 95.088l1.6758 161.1c0.07493 12.3-0.40786 21.778-1.0376 28.477-0.4939 5.2533-1.825 10.372-4.4041 15.324l-0.0241 15.819c-0.2707 2.9718-0.89353 5.1577-1.7024 6.6516-0.5415 0.9998-1.4769 2.4054-2.9769 4.1295-5.6306 0.2038-9.993 0.0032-13.105-0.4963-3.7419-0.6006-7.4182-1.8636-11.012-3.8947l-20.068-11.174c-2.0592-1.3472-3.235-2.5958-3.5278-3.7456-0.9106-1.3581 0.29034-5.0847 3.6034-11.18-1.932-2.7792-2.8047-7.0174-2.618-12.716l4.7097-48.477c0.5205-6.739 0.51076-12.629-0.0294-17.669l-16.601-82.641c-2.5296-11.017-5.4622-67.394-10.281-77.918-16.716 30.469-29.336 94.869-36.376 101.99 0.0147 1.5494 0.45315 3.5635 1.4472 5.99 5.8661 14.317 10.059 25.164 12.574 32.554 2.7542 8.0919 5.2787 16.374 7.9446 24.736 2.61 8.1865 8.2902 30.321 16.547 66.567-3.0357 6.6139-5.8574 10.756-7.9647 12.948-1.1743 1.2215-3.8191 1.7954-8.4906 1.2569-3.1024 2.9109-4.9071 4.3243-5.414 4.2408-1.4743 0.6541-3.5679 0.0747-6.2807-1.7383-0.63476 0.1025-7.0679-6.1123-19.777-18.148-2.3262-2.2028-4.3662-2.7318-5.6637-2.1051-3.2216-15.68-8.2638-32.282-14.424-50.056-1.9524-5.633-9.9728-24.204-24.331-55.687-2.5045-5.4908-4.0537-10.238-5.2378-14-3.3792-10.738-4.3575-22.111-3.0383-34.195 1.3942-12.77 5.9812-31.89 13.775-57.405 12.11-39.648 22.926-71.772 32.684-96.301l143.74 22.657z"/> <path d="m970.96 812.55 4.7402 16.627q33.568 18.406 46.422 39.112 14.391 20.681 13.862 38.249-0.047 4.2185-0.9163 8.1197-5.3308 15.007-4.9033 17.662l1.1452 31.823q-0.1358 10.059-1.5474 19.974-3.4837 23.408-9.5339 35.615-4.6546 9.5824-12.368 12.346-11.555 4.3046-31.638-3.2301-5.5797 4.9825-7.0186 9.8549-1.3691 3.951-0.82764 10.499 6.096 35.343 4.9861 38.483-0.1813 12.066-5.1267 26.915-7.2346-8.6011-9.9502-7.9581-43.624 10.677-67.136 7.0526-19.766-2.0272-36.559-10.09l-21.128-1.2932q-6.2756-0.9748-14.738-4.3927l8.0397-35.634 5.6543-48.453q-7.0139 2.3988-8.8689 1.8211-2.7744-0.12574-6.4133-5.3119-12.398 1.6341-15.525-2.0406l2.2685-30.556q6.0154-7.3157 19.717-13.217 0.48754-14.011 2.9513-21.324l19.975-65.51q3.7764-11.537 7.0607-15.064 2.7651-3.3402 9.0402-6.697 28.114-13.386 36.781-18.664l-0.9783-8.3041 14.854-12.851 57.292-3.538"/> <path d="m829.58 1386.1 45.443-4.7385q4.8656 9.6717 9.3303 27.914 3.3282 14.324 1.9344 20.449-1.221 6.3268-8.4432 7.9426-2.4872 0.597-6.5913 0.7804l-18.466 0.0552q-4.6945 0.1156-8.3248 0.648-3.7356 0.5545-7.629 1.6305-16.217 5.089-17.574 5.2176-5.8396 1.3949-12.071 2.0387-21.998 2.211-35.506-6.5076-5.7697-4.8344-3.0357-9.7363 0.8915-0.898 4.406-2.7182 22.245-10.786 28.1-14.156 9.0904-5.0166 14.426-9.0215 11.909-8.936 13.994-19.76"/> </g> <g fill="#ffc4ac"> <path d="m937.54 723.41q16.855-0.1349 20.484 4.9267 1.4976 1.8348 2.1108 4.8216 0.38906 1.1424 0.724 8.6161 0.10596 1.0824 0.41053 2.1068 0.25083 0.8823 0.85643 2.0007l2.8181 4.5748q0.7637 1.6429 1.0365 3.1362 0.33255 1.5803 0.43704 4.4203l-0.10524 9.864q0.0382 1.8976 0.21547 1.9071 0.14953 0.34919 0.7583-0.71856 3.7589-8.4903 4.6466-9.3632 1.4768-2.1157 3.0913-1.8047 4.6173 2.4841 2.7636 14.588-1.4634 10.379-10.302 11.376l-2.059 30.679-27.058 13.042q-3.1586 4.9953-4.21 8.03-0.59327 0.60293-2.6666 11.709-0.77197 2.6477-1.8548 4.1454-1.2025 1.7434-3.5251 3.1912-10.908 5.2157-10.851 5.8399-2.6567 2.11-5.036 6.737-4.0581-19.338-3.577-23.636 0.15-1.5771 0.6948-2.0446l0.7522-0.42644q2.8135-0.17736 3.3186-0.76093 1.0614-0.84863 1.5196-2.7662 1.303-4.3079 1.308-21.974-4.966-6.6509-6.5572-10.871-2.1353-4.7846-5.4724-19.347-2.478-3.6498-3.3368-6.6883-2.2321-8.9374-1.1427-17.93 0.9082-5.1082 3.5726 0.6667 1.5215-29.282 7.5748-33.681 2.8926-2.7311 7.9998-3.4398 1.807-0.58746 20.573-0.92476"/> </g> <g fill="#f00" fill-opacity=".070588"> <path d="m954.81 814.75 2.5562 4.0446-18.864 8.8161-8.7759 24.452-14.503-36.092q11.111 10.157 19.004 9.9557 4.172-0.08801 9.0482-2.8136 4.1016-2.2283 11.469-8.3091"/> </g> <g fill-opacity=".19608"> <path d="m910.28 866.23q1.2638 0.67586 1.0164 1.8632-11.794 36.688-15.216 51.643-1.2649 5.4307-2.245 11.024-3.0318 19.547-3.6415 22.735-1.3216 7.1308-3.4683 16.055-1.7976 7.2088-14.501 51.488-3.1666 11.581-5.4176 21.388-5.5396 23.762-10.184 62.588-0.35497 1.6587-2.2158 1.2982-0.82325-0.194-1.0159-1.5873 1.9516-15.73 3.33-25.153 3.1415-21.655 7.222-39.171 2.037-8.8119 4.93-19.439 13.398-46.674 15.165-54.058 2.0984-9.1386 3.1026-14.905 3.482-22.287 4.0531-25.019 1.4598-7.4883 4.0198-17.046 3.497-13.191 12.901-42.543 0.67715-1.6004 2.1164-1.1776"/> </g> <g fill="#ffc4ac"> <path d="m846.59 974.26q1.1028-0.62421 8.6845-2.587l5.5638-1.8684q2.6378-0.6087 4.9874-0.1903 1.8362 0.2723 4.3796 0.96144 25.66 7.4661 38.708 10.472 20.776 3.4749 46.775 8.3574 5.2477 15.266 4.6842 23.195-0.2161 6.4176-7.6749 14.311l-52.443-18.341q-14.598 6.5687-23.535 9.1543-8.4711 2.4143-13.566 1.3877-5.5652-0.853-13.38-7.8269-4.544-1.0054-5.8334-1.8509-1.402-0.7409-2.2234-2.9936-5.3026-0.27307-6.5869-1.0005-1.673-0.67535-3.093-3.299-5.315 0.885-7.7519-0.53383-5.6707-3.6656-4.0459-7.5059 0.32983-0.46302 1.3743-0.65699l6.0462-0.00576q1.9271-0.1662 3.4343-0.6986 3.2847-0.9866 10.342-5.676-11.417 0.15966-9.5873-4.3745 0.39991-1.1193 1.5781-1.6392-0.05517-0.20296 3.8855-0.52336 1.0087-0.19673 1.6517-0.57216 5.9124-5.3226 7.4801-5.631"/> </g> <g fill="#100a43"> <path d="m315.9 1141.7-79.233 0.0011q0 151.18 6e-5 302.37 39.616 3e-4 79.233 9e-4 3e-5 -151.18 7e-5 -302.37"/> <path d="m556.22 756.75 4.8452 2.2428q12.35 5.0816 30.601 23.047 10.278 10.016 21.515 30.855 4.7508 9.525 8.0068 19.966l2.8822 10.671 2.1346 11.129 1.3871 11.587q0.98827 16.077 0.58157 16.027-0.4241 15.856-3.926 30.572-6.2532 24.763-17.341 41.904-11.615 17.506-21.265 25.769-19.201 15.923-29.426 19.207l0.0048-242.98z"/> </g> <g fill="#352e7c"> <path d="m547.42 877.98 0.0914 16.45q0.6494 49.713 3.8007 79.518 3.1732 29.782 7.4732 24.153 4.1039-7.8679 6.5644-46.043 0.78844-12.34 1.2988-26.891l0.42894-14.96q0.35352-15.441 0.35743-32.227-0.1073-51.514-2.9311-85.721-2.8239-34.207-7.0762-35.507-4.2526 1.3-7.0765 35.507-2.8238 34.207-2.9311 85.721"/> </g> <g fill="#3e9cdf"> <path d="m269.68 922.29h7.7741l7.7737 3e-4q-3e-5 31.618-3e-5 63.236-7.7739 1e-4 -15.548 4e-4 0-31.619 2e-5 -63.237"/> </g> <g fill="#fff"> <path d="m255.28 873.41-0.3095 9e-4q-12.881 0.04273-24.368 4.1378l18.912 43.215q15.573-13.186 33.401-9.4656 3.6025 0.7193 6.8732 2.0522 7.8866 3.869 9.0659 5.3791 8.5585 7.5581 11.54 16.131 3.3391 8.2751 1.989 18.194-2.0658 13.75-11.898 22.631l0.00382 14.115q14.643-14.685 19.075-32.313 1.4772-5.8762 1.8201-12.079l0.05948-6.2849q-0.81406-12.81-5.0302-23.536-0.52232-3.0071-8.2379-14.918-6.9597-9.3568-16.553-15.86-16.864-10.976-36.343-11.398z"/> </g> <g fill="#352e7c"> <path d="m229.67 877.9-3.3093 1.3659q-14.398 7.2468-20.859 14.695-6.6382 6.513-12.585 18.05-10.3 21.561-4.2059 45.659 3.0359 11.451 8.0271 19.147 5.9755 10.165 17.404 18.754 7.9894 6.2242 23.429 11.057 7.2818 2.0994 23.118 1.4901l0.00342-25.798q-2.4634-0.47326-10.592-6.7562-3.0069-2.7415-5.3156-6.1365-4.6175-6.7893-6.4419-16.191-0.45445-10.06 0.25441-11.711 0.58467-3.6777 1.8358-7.0543 2.1768-6.4238 8.3219-12.961l-19.084-43.609z"/> <path d="m255.41 987.85 1.864 11.682q-5.942 12.352-14.644 18.883-7.6796 6.4681-34.502 20.114-7.5802-5.1036-9.7312-10.276-1.536-4.326-0.83318-11.8-4.1109-3.951-4.6121-5.2739-0.46698-0.9212-0.32846-1.6631 1.3701-3.057 0.89352-3.4588l-0.68702-1.2072q-2.4844-2.9562-2.5631-3.3112l-0.5905-1.5744q-0.29991-2.4198 2.0866-6.1734-7.0065-1.6582-9.7837-3.1483-3.5383-1.6836-4.1547-4.8565-0.65679-2.6215 2.1457-9.0346l2.0769-4.2302 8.4003-15.901 64.963 31.231"/> <path d="m309.7 947.75-0.30988 4.6054q-2.2027 13.918-12.89 22.263-10.762 8.3379-25.345 6.7619-13.918-2.2028-22.263-12.89-2.6737-3.4549-4.4045-7.5288l-1.4549-4.1883q-1.199-4.3228-1.2124-9.0223 0.36404-14.422 9.9408-23.999 9.5769-9.5769 23.999-9.941 14.422 0.36405 23.999 9.9408 9.5769 9.577 9.9409 23.999"/> </g> <g fill="#95fd45"> <path d="m173.85 935.94 38.876 16.517-38.876-16.517"/> </g> <g fill="#fff"> <path d="m184.5 932.92 7.8994 1.5e-4h7.8995q0 16.428 0 32.856-7.8995 0-15.799 1.4e-4 2e-5 -16.428 2e-5 -32.857"/> <path d="m195.68 943.66 28.66 2e-4h28.66q0 5.843-3e-5 11.686-28.66 0-57.32 1.5e-4 2e-5 -5.8433 2e-5 -11.687"/> <path d="m305.7 947.92-0.29514 4.0596q-0.44643 2.7249-1.2611 5.2052-0.17716 1.393-3.2722 6.8904-2.7338 4.2262-6.94 7.4737-2.1178 1.6223-4.3994 2.8124-5.8479 2.5958-7.2144 2.5958-5.0558 1.0818-10.768 0.43326-1.5153 0.00684-7.6243-2.1677-2.3578-0.99853-4.471-2.3655-4.2266-2.7337-7.4741-6.9402-7.2466-10.173-5.95-21.094 0.57337-5.4383 2.7468-10.024 1.0868-2.2928 2.5734-4.3725 0.51734-1.1968 5.3128-5.7119 7.9649-6.6612 19.271-6.885 5.6514 0.17326 10.45 1.9468 5.8118 2.567 6.7184 3.5603 2.0797 1.4867 3.946 3.3736 4.3142 4.8996 4.6942 6.1304 1.2629 2.1998 2.1236 4.6089 1.7212 4.8175 1.8331 10.471"/> </g> <g fill="#352e7c"> <path d="m179.44 938.79 6.0691 1.7e-4h6.0692q0 11.667-1e-5 23.334-6.0691 1e-4 -12.138 2e-4 -1e-5 -11.667-1e-5 -23.335"/> <path d="m269.7 980.08 3e-5 40.802 15.508 2.4e-4 -2e-5 -40.802-15.508-2.7e-4z"/> </g> <g fill="#fff"> <path d="m275.65 969.86v51.016l4.5232 4.9e-4 -2e-4 -51.017-4.523-1.4e-4z"/> <path d="m375.4 1052.6v2e-4 2e-4 -4e-4"/> </g> <g fill="#110440"> <path d="m500.04 847.92c-4.5696 0-9.2418 0.6072-14.032 1.93-15.924 4.3969-33.149 16.728-48.211 27.491-14.105 10.079-26.01 18.519-33.7 18.998-0.22822 0.0143-0.45057 0.02124-0.66992 0.02124-1.0864 0-2.0752-0.17164-2.984-0.48464-5.3629-1.8466-8.5087-8.7245-12.183-17.044-3.9642-8.975-8.479-19.408-17.919-22.659-2.2587-0.77775-4.7542-1.1305-7.4373-1.1305-20.207-6e-5 -53.592 20.263-86.355 40.087-0.38464 0.23322-0.64059 0.65466-0.64059 1.1358 0 0.47992 0.25833 0.92205 0.67597 1.1574 0.2026 0.11434 0.42742 0.1712 0.65206 0.1712 0.23834 0 0.47656-0.06416 0.68754-0.19171 33.172-20.072 65.721-39.704 84.98-39.704 2.4546 0 4.6489 0.32345 6.5724 0.98595 8.1236 2.7976 12.232 11.888 16.354 21.22 3.4621 7.8386 7.0342 16.17 13.748 18.482 1.1944 0.41136 2.4758 0.62916 3.849 0.62916 0.27755 0 0.55004-0.0084 0.83447-0.0262 8.6606-0.53985 21.371-9.6913 35.08-19.488 15.192-10.856 32.001-22.847 47.373-27.092 4.5608-1.2594 8.9947-1.8344 13.325-1.8344 20.953 7e-5 39.648 13.432 58.448 28.699v-3.4176l0.00425 3e-4 -0.00425-5.4e-4 4e-3 2.4e-4c-18.25-14.722-37.154-27.938-58.452-27.938z"/> <path d="m456.13 907.97c-1.398 0-2.7841 0.12246-4.1636 0.34821-7.2787 1.1914-14.488 5.3026-22.133 9.641-9.486 5.3834-19.84 11.247-32.545 13.326-3.7627 0.61604-7.7495 0.9022-11.93 0.9022-24.585 1e-4 -55.441-9.864-86.599-19.844-0.14523-0.05304-0.30001-0.08215-0.46185-0.08215-0.73358 5e-5 -1.3281 0.59485-1.3281 1.3282 0 0.5778 0.37314 1.0892 0.93127 1.2676l0.01041 0.00342c31.024 9.9367 62.345 19.983 87.448 19.983 4.2996 0 8.4316-0.294 12.359-0.9369 13.238-2.1669 23.979-8.276 33.427-13.638 7.7674-4.4081 14.537-8.2305 21.251-9.3296 1.2495-0.2048 2.493-0.31343 3.7346-0.31343 0.54394 0 1.0913 0.02099 1.6362 0.06423 9.8414 0.7763 20.249 8.7015 31.547 17.373 7.8725 6.0413 16.1 12.363 24.566 16.297 8.8668 4.1198 17.936 5.602 27.077 5.602 5.8102-4e-5 11.665-0.60014 17.524-1.5053l0.0044 2e-4v-2.6883l-0.0044 4e-4c-5.8939 0.9251-11.738 1.5367-17.524 1.5368-8.8454 0-17.516-1.4323-25.958-5.3548-8.1493-3.7865-16.138-9.9095-24.068-15.995-11.043-8.4745-22.15-17.061-32.955-17.913-0.61615-0.0487-1.2331-0.07236-1.8453-0.07236z"/> <path d="m558.48 787.59c-14.048 6.1662-28.75 12.552-50.448 21.284-18.749 7.5462-42.437 16.716-65.412 16.716-6.4518 1.4e-4 -12.832-0.72404-19.019-2.405-10.902-2.9621-21.288-8.909-31.593-14.819-13.428-7.701-26.827-15.425-40.556-15.425-2.896 0-5.8079 0.3423-8.7385 1.0974-27.086 6.9795-55.342 49.419-83.092 90.934-0.14167 0.21115-0.2239 0.46465-0.2239 0.73745 0 0.5855 0.38267 1.1016 0.94234 1.2713 0.12753 0.0388 0.25729 0.0573 0.38556 0.0573 0.43515 0 0.85318-0.21436 1.1042-0.5899 28.11-42.053 55.713-83.181 81.547-89.838 2.7035-0.69656 5.3919-1.0133 8.0758-1.0133 12.881 3e-5 25.623 7.2668 39.235 15.074 10.244 5.8746 20.928 12.011 32.218 15.078 6.4478 1.7519 13.066 2.4982 19.715 2.498 23.566 5e-5 47.717-9.3871 66.403-16.908 21.184-8.5257 35.716-14.82 49.456-20.847l0.00439 2.6e-4v-2.9008z"/> <path d="m558.49 816.87-29.4 7.7597-0.00403 4.4e-4c-35.271 6.1738-70.978 12.406-89.231 23.24-6.7962 4.0338-11.169 8.6929-14.73 12.481-4.3872 4.6673-7.2476 7.6008-11.681 7.601-1.9264 0-4.2526-0.55843-7.2302-1.958-4.7412-2.2288-10.898-6.4675-18.031-11.385-15.929-10.98-36.625-25.31-55.09-25.31-0.72872 0-1.4556 0.0222-2.1785 0.06785-27.172 1.715-48.131 36.445-68.5 69.928-0.12298 0.20111-0.19351 0.43724-0.19351 0.68969 0 0.59589 0.39636 1.1186 0.96976 1.2793 0.11874 0.03325 0.23922 0.04925 0.35832 0.04925 0.45497 0 0.8893-0.2346 1.1346-0.6378 20.775-34.15 40.959-67.053 66.398-68.658 0.66217-0.04181 1.3399-0.06267 2.0114-0.06267 17.454 0 37.39 13.679 53.583 24.841 7.0534 4.8623 13.421 9.2572 18.408 11.602 3.1965 1.5027 5.918 2.2105 8.3603 2.2105 5.7877-1.7e-4 9.4397-3.995 13.616-8.4379 3.5522-3.779 7.7044-8.1901 14.15-12.016 17.736-10.527 52.843-16.695 88.401-22.92 0.0371-0.0065 0.07365-0.0144 0.11-0.0241l28.769-7.5932 4e-5 -2.747z"/> <path d="m354.98 880.71c-12.584 0-35.918 10.896-58.717 21.505-0.46104 0.20893-0.78042 0.67194-0.78042 1.2095 0 0.45396 0.2315 0.87626 0.61404 1.1203 0.2168 0.13804 0.46488 0.2081 0.71414 0.2081 0.19062 0 0.382-0.041 0.5602-0.124 23.158-10.776 45.778-21.263 57.609-21.263 2.3385 0 4.0805 0.4189 5.2809 1.1911 2.6539 1.7074 3.3812 5.5444 4.2333 10.735 0.9336 5.6861 2.0091 12.699 7.8929 16.484 2.7007 1.7374 6.2963 2.7223 11.099 2.7222 0.17532 0 0.30386-8e-4 0.48251-0.00325 12.473-0.16745 33.774-6.8825 56.005-13.874 21.337-6.7104 43.663-13.727 60.602-15.894 4.0127-0.5133 7.7146-0.7529 11.143-0.7529 25.315 1e-4 36.056 13.046 46.773 26.817v-4.3016l0.00425 3e-4 -0.00425-6.3e-4 0.00413 3.3e-4c-10.229-12.933-21.848-25.171-46.777-25.171-3.5519 0-7.3674 0.2481-11.48 0.77444-17.227 2.2036-39.812 9.3117-61.062 15.995-22.45 7.0604-43.266 13.591-55.244 13.752-0.15488 0.00214-0.29429 3e-3 -0.44672 3e-3 -4.4447 1e-4 -7.5016-0.91046-9.6617-2.3-4.7212-3.0372-5.7283-8.7084-6.7087-14.68-0.77497-4.7203-1.5533-10.053-5.4174-12.539-1.7973-1.1562-4.1157-1.6135-6.7178-1.6135z"/> <path d="m558.48 766.08c-28.148 7.1497-56.188 14.228-82.019 19.478-18.51 3.7619-35.807 6.5676-53.043 6.5676-7.6779 1.4e-4 -15.341-0.55686-23.09-1.8345-8.1278-1.3403-16.369-3.476-24.718-5.6406-13.878-3.5982-28.069-7.2854-42.127-7.2851-3.6206 0-7.2388 0.24438-10.847 0.79773-26.002 3.9898-51.029 23.973-63.967 44.95-12.991 21.062-13.824 43.164-14.666 64.88-6.4e-4 0.01697-0.00105 0.034-0.00105 0.0512 0 0.72377 0.57921 1.314 1.3024 1.3281 0.00882 1e-4 0.01747 2e-4 0.02632 2e-4 0.71145 0 1.2988-0.5625 1.3264-1.2766 0.84501-21.795 1.6988-43.203 14.272-63.589 12.626-20.471 37.042-39.873 62.109-43.719 3.461-0.5311 6.9429-0.76704 10.444-0.76704 13.659-2.6e-4 27.515 3.5844 41.46 7.2002 8.3261 2.1588 16.685 4.3268 24.952 5.69 7.906 1.3036 15.715 1.8702 23.523 1.8702 17.509-1.5e-4 35.018-2.8504 53.572-6.6209 25.702-5.2236 53.57-12.249 81.49-19.34l0.00424 3e-4v-2.7407z"/> <path d="m315.05 932.36c-0.56457 0-1.0882 0.363-1.2664 0.9302-0.10498 0.3336-0.07407 0.695 0.08588 1.006l0.03405 0.06625c10.408 20.235 21.087 41.097 39.462 49.509 0.77316 0.3538 1.56 0.686 2.3572 0.9953 5.7787 2.2426 12.183 3.3322 18.738 3.3322 14.08 0 28.859-5.0261 39.65-14.452 6.0685-5.3016 10.85-11.978 15.122-17.936 3.633-5.0657 6.8534-9.543 10.233-12.495 2.5503-2.2279 5.085-3.4992 7.8829-3.4992 1.0051 0 2.044 0.16407 3.1298 0.50672 0.27393 0.08655 0.55053 0.18395 0.8349 0.29419 6.7531 2.6207 15.288 11.41 24.805 21.263 9.7911 10.136 20.497 21.243 30.756 26.46 1.1448 0.58225 2.2862 1.0924 3.4225 1.5332 4.0287 1.5634 7.9757 2.2514 11.851 2.2514 12.786 0 24.786-7.4901 36.341-15.724l0.0043 4e-4v-3.2712l-0.0043 3e-4c-12.142 8.7195-23.954 16.34-36.326 16.34-3.5808 0-7.2083-0.63846-10.905-2.0725-1.0509-0.40802-2.1121-0.88206-3.1796-1.4249-9.7714-4.9688-20.14-15.68-30.049-25.938-9.2932-9.6207-18.314-19.006-25.755-21.894-0.33551-0.13004-0.66326-0.24594-0.99636-0.35104-1.3694-0.4322-2.6781-0.6322-3.9333-0.6322-3.5873 0-6.7379 1.6342-9.6263 4.1574-3.6612 3.1985-7.071 7.9662-10.644 12.948-4.3027 5.9995-8.9126 12.418-14.711 17.483-10.315 9.0108-24.474 13.796-37.903 13.796-6.2358 0-12.314-1.0318-17.777-3.1518-0.75006-0.2912-1.4875-0.6023-2.2126-0.93426-17.368-7.9506-27.659-27.803-38.205-48.308l-0.03409-0.06654c-0.15653-0.30437-0.43011-0.5486-0.78253-0.65953-0.1326-0.04151-0.26678-0.06147-0.39883-0.06147z"/> </g> <g> <path d="m317.1 933.79-0.01867 0.2769q-0.13235 0.8361-0.77451 1.3376-0.64651 0.50097-1.5228 0.40619-0.83619-0.13239-1.3375-0.77445-0.50102-0.6466-0.4062-1.5229 0.13233-0.83618 0.7744-1.3374 0.64665-0.5011 1.5228-0.40644 0.83618 0.1322 1.3375 0.7745 0.16065 0.2076 0.26484 0.4524l0.08731 0.25175q0.07195 0.25952 0.07287 0.54185"/> <path d="m300.71 913.87-0.01859 0.27676q-0.05893 0.3717-0.21835 0.67731l-0.086 0.14863q-0.09238 0.1444-0.21 0.2724-0.11758 0.12773-0.2603 0.23937-0.1437 0.11123-0.29862 0.19313-0.39748 0.1792-0.49063 0.1796-0.34412 0.07545-0.73345 0.0335-0.37175-0.0588-0.6772-0.2183-0.1527-0.07984-0.289-0.18476-0.3261-0.28434-0.37158-0.37154-0.4451-0.57457-0.41974-1.3306 0.01944-0.39124 0.15852-0.7123 0.06722-0.1611 0.15956-0.3057 0.03037-0.0825 0.33356-0.3962 0.05528-0.07665 0.43515-0.3088 0.15506-0.0819 0.32135-0.13437 0.3328-0.10498 0.71098-0.09228 0.3909 0.01945 0.712 0.1585 0.16098 0.06715 0.30557 0.15955 0.34673 0.253 0.39621 0.33356 0.24258 0.26354 0.38032 0.5888 0.15166 0.33954 0.16024 0.79374"/> <path d="m299.22 903.6-0.01856 0.2768q-0.0838 0.44635-0.21836 0.6771-0.2119 0.3966-0.55614 0.6605-0.25083 0.2101-0.69351 0.3526-0.28885 0.08415-0.74332 0.06157-0.84525-0.10114-1.3622-0.70237-0.29004-0.37527-0.3642-0.6267-0.04082-0.0671-0.10512-0.457-0.01762-0.15906-0.01198-0.3271 0.01408-0.41704 0.206-0.8178 0.08206-0.2425 0.48626-0.6379 0.64484-0.5321 1.4268-0.49375 0.80673 0.04375 1.3772 0.60711 0.32321 0.35749 0.4487 0.71004 0.12085 0.3133 0.12839 0.7169"/> <path d="m279.73 896.13-0.01864 0.2768q-0.14683 0.8585-0.77454 1.3375-0.17481 0.17046-0.69336 0.3526-0.20743 0.07666-0.74347 0.06152-0.18781-0.02256-0.35943-0.06976-0.09596-0.0081-0.47834-0.19696-0.29466-0.16854-0.52429-0.43564-0.31971-0.4214-0.38357-0.6726-0.12553-0.407-0.0925-0.8309 0.01894-0.341 0.22298-0.7809 0.10465-0.2306 0.46406-0.5823 0.28652-0.2364 0.60018-0.3601 0.15686-0.06186 0.3205-0.09574 0.07745-0.03442 0.50598-0.03776 0.09693-0.01125 0.51157 0.0869 0.16195 0.04833 0.31198 0.1221 0.30023 0.14785 0.55371 0.39816 0.28741 0.31784 0.41852 0.63174 0.1513 0.3516 0.15866 0.7953"/> <path d="m265.63 900.18-0.01854 0.27675q-0.03259 0.19075-0.08906 0.36275-0.16183 0.4138-0.2226 0.47404-0.16243 0.2688-0.50603 0.53876-0.16424 0.14483-0.70044 0.3305-0.21673 0.0592-0.6932 0.04566-0.19925-0.02411-0.41636-0.08226-0.18609-0.0651-0.42157-0.1845-0.23584-0.12063-0.5243-0.43564-0.284-0.37456-0.36623-0.61462-0.14011-0.40179-0.10983-0.88854 0.03171-0.4024 0.24956-0.83393 0.1181-0.21697 0.43745-0.52947 0.61455-0.5253 1.4522-0.4949 0.7857 0.0531 1.3517 0.6085 0.23987 0.2475 0.41852 0.63157 0.16798 0.44067 0.15868 0.79533"/> <path d="m263.09 885.66-0.01867 0.2767q-0.03813 0.32933-0.27953 0.79247-0.24714 0.37883-0.57917 0.61578-0.18271 0.13285-0.65923 0.29785-0.14146 0.0536-0.6934 0.0456-0.41354-0.0311-0.83774-0.26685-0.17804-0.07325-0.52436-0.43535-0.30898-0.397-0.39525-0.7051-0.10773-0.3656-0.08082-0.7984 0.06055-0.49505 0.24947-0.83373 0.07088-0.15877 0.4376-0.5296 0.27308-0.23327 0.59037-0.35712 0.15848-0.06185 0.32816-0.09625 0.07791-0.03437 0.53369-0.0415 0.34912 0.0237 0.6549 0.14654 0.08332 0.0152 0.43438 0.24006 0.13667 0.09844 0.26258 0.2219 0.19294 0.17824 0.4184 0.6317 0.14929 0.35165 0.15862 0.7953"/> <path d="m247.29 888.1-0.0187 0.27694q-0.00842 0.24204-0.27952 0.7925-0.21982 0.3366-0.50658 0.5615-0.20202 0.17576-0.76845 0.36314-0.29451 0.05341-0.74884 0.02503-0.34781-0.03777-0.78744-0.27717-0.17484-0.0938-0.48274-0.41577-0.27453-0.35263-0.3733-0.63533-0.13078-0.3817-0.10276-0.8679 0.05395-0.4401 0.20916-0.75665 0.08457-0.21695 0.47786-0.60681 0.59671-0.51899 1.4523-0.49474 0.78306 0.03404 1.3951 0.65153 0.54643 0.64393 0.53394 1.3837"/> </g> <g fill="#fff"> <path d="m288.53 995.6 0.7804 21.737-34.225 0.9124q-42.229 35.882-51.874 57.136-10.364 19.396-12.665 44.397l156.33-1e-4q-8.102-38.054-14.911-55.502-11.765-35.339-43.437-68.681z"/> </g> <g fill="#352e7c"> <path d="m275.42 1048.9q-23.136 1.3134-38.499 35.858-6.9806 15.696-10.91 35.001h98.818q-3.9292-19.305-10.91-35.001-15.363-34.545-38.499-35.858z"/> <path d="m288.53 995.6 0.7804 21.737-1.6961 0.0455 2.719 2.6302q19.887 17.874 29.991 41.585 7.268 15.939 15.8 58.185l10.755 6e-4q-8.102-38.054-14.911-55.502-11.765-35.339-43.437-68.681z"/> <path d="m412.95 1100.1-281.09 9e-4q0 31.416 1.5e-4 62.831 140.54 3e-4 281.09 4e-4 7e-5 -31.416 3e-5 -62.832"/> </g> <g> <path d="m902.94 1390.4 45.443-4.7387q4.8655 9.6719 9.3301 27.914 3.3283 14.325 1.9345 20.449-1.2212 6.3265-8.4432 7.9425-2.4872 0.597-6.5912 0.7806l-18.466 0.0551q-4.6945 0.1153-8.3248 0.6477-3.7356 0.5547-7.629 1.6306-16.216 5.0889-17.574 5.2174-5.8394 1.395-12.071 2.0386-21.999 2.2115-35.506-6.5072-5.7698-4.8343-3.0356-9.7362 0.8915-0.898 4.4058-2.7183 22.246-10.786 28.1-14.156 9.0903-5.0167 14.425-9.022 11.909-8.9354 13.994-19.76"/> </g> <g fill="#110440"> <path d="m721.91 948v6.1e-4c0 0.03763 1e-3 0.07519 0.0032 0.11267 4.6592 84.268 9.1058 166.91-6.9668 191.23-3.5081 5.3093-7.8772 7.5474-12.654 7.5474-16.774 0-41.148-27.684-51.72-68.346-9.2667-35.645-7.5377-80.255-6.1141-116.63 0.66515-16.991 1.264-32.234 0.5909-43.766-1.8357-31.449-13.36-36.369-26.82-36.369-2.084 0-4.1966 0.10926-6.2454 0.2149-1.1261 0.05805-1.992 1.018-1.934 2.1442 0.0581 1.1261 1.0182 1.9919 2.1443 1.9339 2.0675-0.1067 4.0747-0.2096 6.0351-0.2096 10.828-1e-4 21.004 2.7321 22.743 32.523 0.6587 11.286 0.07336 26.297-0.5946 43.368-1.4175 36.213-3.2061 81.473 6.2422 117.82 10.556 40.605 35.642 71.402 55.672 71.402 6.3201 0 11.897-3.0777 16.061-9.3798 17.044-25.796 12.234-110.57 7.6369-193.71l3e-3 0.11277v-6.1e-4c0-1.1275-0.914-2.0417-2.0415-2.0417-1.1277 0-2.0418 0.91415-2.0418 2.0417z"/> <path d="m747.9 962.61v0.00104l0.0034 0.11776c4.8756 84.35 9.5253 167.02-6.9508 191.2-3.5662 5.234-8.0226 7.4608-12.904 7.4609-17.216 0-42.048-27.859-51.473-68.186-6.7378-28.829-5.363-63.408-4.0881-95.137 1.011-25.166 1.9698-48.678-1.4851-65.597-7.9662-39.013-39.204-43.031-68.576-46.948-1.1178-0.149-2.1447 0.6362-2.2937 1.754-0.1491 1.1177 0.6362 2.1446 1.7539 2.2936 29.829 3.9775 57.792 7.8534 65.115 43.717 3.332 16.318 2.425 39.243 1.4056 64.616-1.2691 31.582-2.6965 66.756 4.1921 96.23 9.4443 40.41 34.985 71.34 55.45 71.34 6.3701-1e-4 12.033-3.0143 16.278-9.2448 17.497-25.677 12.462-110.55 7.6527-193.74l0.00341 0.11779v-0.00104c0-1.1277-0.91406-2.0417-2.0418-2.0417-1.1276 0-2.0416 0.914-2.0416 2.0417z"/> <path d="m762.5 964.36v9.1e-4l0.00344 0.11874c4.9128 84.416 9.5959 167.14-6.9458 191.2-3.5529 5.1664-7.9894 7.366-12.853 7.366-17.304 1e-4 -42.283-28.009-51.528-68.079-6.4121-27.792-5.0316-60.807-3.7258-91.716 1.1022-26.091 2.1626-50.812-1.8552-69.054-8.8977-40.399-42.48-48.879-74.465-57.093-1.0921-0.28046-2.2049 0.37764-2.4853 1.4698-0.28053 1.0922 0.3774 2.205 1.4696 2.4854 32.4 8.3205 63.203 16.375 71.493 54.016 3.8768 17.603 2.8743 41.702 1.7631 68.003-1.2996 30.764-2.7338 64.371 3.8268 92.807 9.2694 40.177 34.959 71.244 55.507 71.244 6.3374 0 11.979-2.9731 16.218-9.1359 17.577-25.559 12.502-110.5 7.6576-193.75l0.00343 0.11846v-9.1e-4c0-1.1277-0.91403-2.0418-2.0416-2.0418-1.1276 0-2.0417 0.91412-2.0417 2.0418z"/> </g> <g fill="#100a43"> <path d="m642.24 1094.9-163.88 1e-3 -1.2e-4 351.01q81.939 5e-4 163.88 0.0015 1.6e-4 -175.51 3e-4 -351.01"/> </g> <g fill="#222b32" fill-opacity=".99608"> <path d="m637.47 1110.5-145.45 7e-4q0 21.346 0 42.693 72.726 4e-4 145.45 6e-4 0-21.347 0-42.694"/> </g> <g fill="#352e7c"> <path d="m620.57 1277.7-25.575 4e-4 -25.575 1e-4q-5e-5 79.658-1.9e-4 159.32 25.575-2e-4 51.15-1e-4 0-79.658 3e-4 -159.32"/> <path d="m551.18 1278.2-51.151 3e-4 -1.3e-4 159.32 51.151 7e-4 1e-4 -159.32"/> <path d="m633.03 1167.5-145.45 6e-4 -4e-5 42.692 145.45 5e-4v-42.694"/> <path d="m633.03 1222.1-145.45 6e-4q-4e-5 21.346-1e-4 42.692 72.726 2e-4 145.45 3e-4 1.4e-4 -21.347 1.4e-4 -42.693"/> </g> <g fill="#44c5e5" fill-opacity=".99608"> <path d="m543.24 1285-31.827 4e-4q-6e-5 7.8774-6e-5 15.754 15.913 0 31.827 2e-4 0-7.8774 5e-5 -15.755"/> <path d="m611.69 1284.6-31.827 6e-4v15.754l31.827 5e-4 1.5e-4 -15.755"/> </g> <g fill="#100a43"> <path d="m467.7 1392.6-145.21 1e-3q0 26.188 6e-5 52.376 72.604 0 145.21 3e-4 0-26.189 0-52.378"/> </g> <g fill="#352e7c"> <path d="m463.42 1395.8-135.62 8e-4q0 22.445 3e-5 44.89 67.81 0 135.62 3e-4 3e-5 -22.446-4e-5 -44.892"/> </g> <g fill="#ff2c00" fill-opacity=".99608"> <path d="m459.47 1399.4-3.2459-0.0468-3.2461-0.0469q-0.04124 2.8689-0.0824 5.7377 3.2459 0.0466 6.4918 0.093 0.04135-2.8684 0.08265-5.737"/> <path d="m459.35 1407.8-6.4917-0.0932-0.08273 5.7367 6.4918 0.0939 0.08266-5.7374"/> <path d="m459.23 1416.2-3.2458-0.0466-3.2459-0.0467q-0.04147 2.8688-0.0827 5.7375 3.2459 0.0466 6.4917 0.0935 0.04143-2.8692 0.08267-5.7377"/> <path d="m451.25 1399.4-3.2461-0.0468-3.2459-0.0469q-0.04123 2.8689-0.08255 5.7377 3.2458 0.0466 6.4921 0.093 0.0411-2.8684 0.0825-5.737"/> <path d="m451.13 1407.8-6.4918-0.0932-0.08274 5.7367 6.4919 0.0939 0.08272-5.7374"/> <path d="m451.01 1416.2-3.246-0.0466-3.2459-0.0467q-0.04135 2.8688-0.08267 5.7375 3.246 0.0466 6.492 0.0935 0.04133-2.8692 0.08257-5.7377"/> <path d="m443.04 1399.4-3.246-0.0468-3.2459-0.0469q-0.04138 2.8689-0.08261 5.7377 3.2459 0.0466 6.4921 0.093 0.04118-2.8684 0.0824-5.737"/> <path d="m442.91 1407.8-6.492-0.0932-0.08268 5.7367 6.492 0.0939 0.08274-5.7374"/> <path d="m442.79 1416.2-3.246-0.0466-3.246-0.0467q-0.04138 2.8688-0.08267 5.7375 3.246 0.0466 6.492 0.0935 0.04128-2.8692 0.0827-5.7377"/> </g> <g fill="#71cfeb"> <path d="m410.72 1407.3-0.04678 3.2461-0.04672 3.2457q2.8687 0.0415 5.7371 0.0827 0.04682-3.2462 0.09358-6.492-2.8685-0.041-5.7372-0.0825"/> <path d="m419.12 1407.4-0.09344 6.4919 5.7372 0.0824 0.0936-6.4917-5.7373-0.0826"/> <path d="m427.52 1407.5-0.04679 3.246-0.04672 3.246q2.8686 0.041 5.7372 0.0826 0.04676-3.2461 0.09364-6.4918-2.8687-0.0414-5.7374-0.0828"/> <path d="m410.72 1414.9-0.04678 3.2462-0.04672 3.2461q2.8687 0.0409 5.7371 0.0826 0.04682-3.246 0.09358-6.4919-2.8685-0.0413-5.7372-0.083"/> <path d="m419.12 1415-0.09344 6.4921 5.7372 0.0824 0.09358-6.4919-5.7373-0.0826"/> <path d="m427.52 1415.1-0.04676 3.2461-0.04672 3.2459q2.8686 0.0412 5.7372 0.0824 0.04676-3.2459 0.0936-6.4916-2.8687-0.0418-5.7374-0.0828"/> </g> <g fill="#f7f297"> <path d="m380.29 1406.9-0.04663 3.2455-0.04672 3.246q2.8686 0.0411 5.7372 0.0828 0.04682-3.2458 0.0936-6.4918-2.8686-0.0416-5.7374-0.0825"/> <path d="m388.69 1407-0.09338 6.4917 5.7372 0.0827 0.09359-6.4918-5.7374-0.0826"/> <path d="m397.09 1407.1-0.04672 3.2459-0.04663 3.2463q2.8686 0.0413 5.7372 0.0824 0.04678-3.2458 0.09354-6.4919-2.8686-0.0412-5.7374-0.0827"/> <path d="m380.29 1414.5-0.04663 3.246-0.04678 3.2462q2.8686 0.0414 5.7373 0.0829 0.04682-3.2459 0.0936-6.4922-2.8686-0.0414-5.7375-0.0829"/> <path d="m388.69 1414.6-0.0935 6.4917 5.7373 0.0829 0.09359-6.492-5.7374-0.0826"/> <path d="m397.09 1414.7-0.04685 3.2459-0.0467 3.2462q2.8687 0.0415 5.7374 0.0827 0.04678-3.2461 0.09354-6.4922-2.8686-0.0415-5.7374-0.0826"/> </g> <g fill="#3c464f" fill-opacity=".99608"> <path d="m435.71 1429-38.133 2e-4 -38.133-1e-4q0 2.0148 0 4.029 38.133 4e-4 76.266 4e-4 0-2.0148 0-4.0295"/> </g> <g fill="#100a43"> <path d="m468.72 1338.1-145.21 8e-4q6e-5 26.188-1.2e-4 52.376 72.604 1e-4 145.21 3e-4 0-26.189 0-52.377"/> </g> <g fill="#352e7c"> <path d="m464.44 1341.3-135.62 1e-3q6e-5 22.445-9e-5 44.891 67.81 2e-4 135.62 0 0-22.446-5e-5 -44.892"/> </g> <g fill="#f7f297"> <path d="m460.49 1344.9-3.2458-0.0466-3.246-0.047q-0.0413 2.8689-0.0826 5.7373 3.2459 0.0473 6.4918 0.0935 0.04132-2.8687 0.08267-5.7372"/> </g> <g fill="#3b454e"> <path d="m460.37 1353.3-6.4919-0.0937-0.08252 5.7373 6.4919 0.0935 0.08254-5.7371"/> <path d="m460.25 1361.7-3.2459-0.0465-3.246-0.0467q-0.04138 2.8684-0.08275 5.7376 3.2461 0.0465 6.492 0.0935 0.0413-2.8689 0.08263-5.7379"/> <path d="m452.27 1344.9-3.2459-0.0469-3.246-0.047q-0.04135 2.8689-0.0827 5.7373 3.246 0.0473 6.4919 0.0937 0.0413-2.8686 0.08268-5.7371"/> <path d="m452.15 1353.3-6.4921-0.0939-0.08255 5.7373 6.492 0.0938 0.08261-5.7372"/> <path d="m452.03 1361.7-6.492-0.0934q-0.0414 2.8684-0.08267 5.7376 3.246 0.0465 6.4918 0.0935 0.04135-2.8689 0.08277-5.7377"/> </g> <g fill="#f7f297"> <path d="m444.06 1344.9-3.2459-0.0469-3.246-0.047q-0.04136 2.8689-0.0827 5.7373 3.246 0.0473 6.4919 0.0937 0.0414-2.8686 0.08268-5.7371"/> </g> <g fill="#3b454e"> <path d="m443.94 1353.3-6.4918-0.0939-0.0826 5.7373 6.4918 0.0938 0.08252-5.7372"/> <path d="m443.82 1361.7-6.492-0.0934q-0.04138 2.8684-0.08258 5.7376 3.246 0.0465 6.4918 0.0935 0.04145-2.8689 0.0828-5.7377"/> </g> <g fill="#ff1300"> <path d="m411.74 1352.8-0.04662 3.2459-0.04675 3.2462q2.8687 0.0414 5.7372 0.0824 0.0467-3.2461 0.09358-6.492-2.8686-0.0414-5.7374-0.0825"/> </g> <g fill="#71cfeb"> <path d="m420.14 1352.9-0.09332 6.4922 5.7372 0.0824 0.0936-6.492-5.7375-0.0826"/> <path d="m428.55 1353-0.04657 3.2459-0.04677 3.2462q2.8686 0.0412 5.7373 0.0825 0.04674-3.246 0.09357-6.492-2.8687-0.0411-5.7375-0.0826"/> </g> <g fill="#ff1300"> <path d="m411.74 1360.4-0.04669 3.2462-0.04681 3.246q2.8687 0.0412 5.7372 0.0824 0.04675-3.2458 0.09369-6.4917-2.8686-0.0411-5.7374-0.0829"/> </g> <g fill="#71cfeb"> <path d="m420.14 1360.5-0.0935 6.4917 5.7372 0.0824 0.09372-6.4916-5.7374-0.0825"/> <path d="m428.55 1360.6-0.04663 3.2463-0.04681 3.2458q2.8686 0.0414 5.7372 0.082 0.0468-3.2456 0.0937-6.4917-2.8687-0.0415-5.7375-0.0824"/> </g> <g fill="#f7f297"> <path d="m381.31 1352.4-0.0466 3.2458-0.0467 3.246q2.8685 0.0409 5.7372 0.0824 0.04676-3.2457 0.09348-6.4916-2.8686-0.0415-5.7374-0.0826"/> <path d="m389.71 1352.5-0.09333 6.4919 5.7372 0.0826 0.0935-6.4918-5.7374-0.0827"/> <path d="m398.11 1352.6-0.04654 3.246-0.04675 3.246q2.8685 0.0415 5.7372 0.0828 0.04681-3.2463 0.09354-6.492-2.8686-0.0413-5.7375-0.0828"/> <path d="m381.31 1360-0.0467 3.2462-0.0467 3.2461q2.8685 0.0411 5.7372 0.083 0.04676-3.2465 0.0936-6.4923-2.8686-0.0413-5.7374-0.083"/> <path d="m389.71 1360.1-0.09342 6.4918 5.7372 0.0828 0.09359-6.4919-5.7374-0.0827"/> <path d="m398.12 1360.2-0.0467 3.2461-0.04675 3.2458q2.8685 0.0418 5.7372 0.0829 0.04681-3.2461 0.0936-6.4921-2.8686-0.0413-5.7374-0.0827"/> </g> <g fill="#3c464f" fill-opacity=".99608"> <path d="m436.73 1374.5-76.266 4e-4q0 2.0148 0 4.0293 38.133 0 76.266 1e-4 0-2.0148 0-4.0298"/> </g> <g fill="#100a43"> <path d="m653.34 1094-187.77 5e-4q0 33.865 1e-4 67.73 93.887 8e-4 187.77 0.0011 1.2e-4 -33.866 1.2e-4 -67.731"/> </g> <g fill="#352e7c"> <path d="m647.81 1098.1-87.687 1e-4h-87.687q0 29.025 4e-5 58.05 87.688 0 175.37 5e-4 1.5e-4 -29.026 0-58.05"/> </g> <g fill="#ff2c00" fill-opacity=".99608"> <path d="m642.69 1102.8-4.1975-0.061-4.1974-0.0599q-0.05344 3.7094-0.1069 7.4189 4.1974 0.0604 8.3948 0.1207 0.0535-3.7093 0.10696-7.4187"/> <path d="m642.54 1113.6-8.395-0.1206-0.1068 7.4188 8.3948 0.1211 0.10694-7.4193"/> <path d="m642.38 1124.5-8.3948-0.1208q-0.05333 3.7095-0.1068 7.4191 4.1974 0.0606 8.3948 0.1211 0.05336-3.7097 0.10681-7.4194"/> <path d="m632.07 1102.8-4.1974-0.0608-4.1975-0.0599q-0.0535 3.7094-0.10683 7.4189 4.1974 0.0602 8.3948 0.1207 0.05346-3.7093 0.10696-7.4189"/> <path d="m631.91 1113.6-8.3949-0.1203-0.1068 7.4188 8.3949 0.1207 0.1068-7.4192"/> <path d="m631.75 1124.5-8.3949-0.1208q-0.0535 3.7095-0.10694 7.4191 4.1975 0.0603 8.395 0.1209 0.0533-3.7095 0.1068-7.4192"/> <path d="m621.44 1102.8-4.1975-0.0609-4.1974-0.0601q-0.0533 3.7094-0.1068 7.4193 4.1974 0.0601 8.3947 0.1204 0.0535-3.7093 0.10696-7.4187"/> <path d="m621.29 1113.6-8.3949-0.1206-0.1068 7.419 8.3948 0.1209 0.10681-7.4193"/> <path d="m621.13 1124.5-8.3948-0.1206q-0.05347 3.7095-0.10693 7.4191 4.1975 0.0603 8.3948 0.1209 0.05357-3.7097 0.10694-7.4194"/> </g> <g fill="#71cfeb"> <path d="m579.65 1112.9-0.06031 4.1975-0.06043 4.1976q3.7095 0.0536 7.4191 0.1067 0.0605-4.1973 0.12095-8.3949-3.7096-0.0531-7.4193-0.1069"/> <path d="m590.52 1113.1-0.12076 8.3948 7.419 0.1072 0.12107-8.3953-7.4193-0.1067"/> <path d="m601.38 1113.2-0.06055 4.1974-0.06055 4.1975q3.7096 0.0533 7.4192 0.1069 0.0604-4.1976 0.12097-8.3952-3.7097-0.0531-7.4191-0.1066"/> <path d="m579.65 1122.8-0.06031 4.1974-0.06043 4.1976q3.7095 0.0532 7.4192 0.1066 0.0604-4.1975 0.12085-8.3949-3.7096-0.0535-7.4193-0.1067"/> <path d="m590.52 1122.9-0.12076 8.3954 7.419 0.1067 0.12107-8.3949-7.4193-0.1072"/> <path d="m601.38 1123.1-0.06055 4.1972-0.06045 4.1976q3.7095 0.0537 7.4191 0.1068 0.0604-4.1975 0.12097-8.3948-3.7097-0.0536-7.4191-0.1068"/> </g> <g fill="#f7f297"> <path d="m540.3 1112.4-0.0603 4.1975-0.06045 4.1975q3.7094 0.0536 7.419 0.1072 0.06054-4.1978 0.12097-8.3953-3.7095-0.0536-7.4192-0.1069"/> <path d="m551.17 1112.6-0.12085 8.3949 7.419 0.107 0.1211-8.3952-7.4193-0.1067"/> <path d="m562.03 1112.7-0.06054 4.1975-0.0603 4.1976q3.7094 0.0534 7.419 0.1068 0.0603-4.1974 0.12085-8.3949-3.7096-0.0534-7.419-0.107"/> <path d="m540.3 1122.3-0.0603 4.1974-0.06045 4.1974q3.7094 0.0534 7.419 0.107 0.06054-4.1974 0.12097-8.3951-3.7095-0.0533-7.4192-0.1067"/> <path d="m551.17 1122.4-0.12085 8.3953 7.419 0.1067 0.1211-8.3949-7.4193-0.1071"/> <path d="m562.03 1122.6-0.06054 4.1976-0.0603 4.1971q3.7094 0.0534 7.419 0.1072 0.0603-4.1974 0.12085-8.3948-3.7096-0.0538-7.419-0.1071"/> </g> <g fill="#3c464f" fill-opacity=".99608"> <path d="m611.97 1141-49.311 1e-4 -49.311-4e-4q0 2.6057 0 5.2109 49.311 0 98.622 9e-4 0-2.6063 0-5.2115"/> </g> <g fill="#100a43"> <path d="m654.66 1023.5-187.77 3.1e-4q-1.6e-4 33.865-9e-5 67.729 93.887 9e-4 187.77 0.0011 0-33.865 1e-4 -67.731"/> </g> <g fill="#352e7c"> <path d="m649.13 1027.6-175.38 4e-4q1.2e-4 29.025 7e-5 58.049 87.688 2e-4 175.37 2e-4 1.3e-4 -29.025 2.5e-4 -58.05"/> </g> <g fill="#f7f297"> <path d="m644.01 1032.3-4.1974-0.0606-4.1975-0.0602q-0.05344 3.7092-0.10694 7.419 4.1975 0.0602 8.395 0.1208 0.0535-3.7093 0.10684-7.419"/> </g> <g fill="#3b454e"> <path d="m643.86 1043.2-8.395-0.1207-0.1068 7.4189 8.3949 0.1211 0.10695-7.4193"/> <path d="m643.7 1054-4.1975-0.0603-4.1974-0.0604q-0.05355 3.7091-0.10699 7.4188 4.1975 0.0607 8.3948 0.1212 0.05346-3.7098 0.10705-7.4193"/> <path d="m633.39 1032.3-8.3948-0.1206q-0.05345 3.7092-0.1069 7.419 4.1974 0.0602 8.3949 0.1208 0.05345-3.7093 0.1068-7.4192"/> <path d="m633.23 1043.2-8.395-0.1205-0.1068 7.4189 8.395 0.1209 0.1068-7.4193"/> <path d="m633.07 1054-4.1976-0.0603-4.1974-0.0604q-0.0535 3.7091-0.10686 7.4188 4.1974 0.0607 8.3949 0.121 0.05347-3.7096 0.10697-7.4191"/> </g> <g fill="#f7f297"> <path d="m622.76 1032.3-8.3949-0.1211q-0.05335 3.7095-0.1068 7.419 4.1972 0.0605 8.3948 0.1211 0.05344-3.7093 0.10694-7.419"/> </g> <g fill="#3b454e"> <path d="m622.61 1043.2-8.3949-0.1208-0.1068 7.4189 8.3949 0.1212 0.10683-7.4193"/> <path d="m622.45 1054-4.1974-0.0603-4.1975-0.0608q-0.0535 3.7095-0.10695 7.4192 4.1975 0.0608 8.395 0.1212 0.05336-3.7098 0.1069-7.4193"/> </g> <g fill="#ff1300"> <path d="m580.97 1042.4-0.0604 4.1976-0.0603 4.1977q3.7095 0.0534 7.4189 0.1067 0.06057-4.1975 0.12107-8.395-3.7097-0.0532-7.4193-0.107"/> </g> <g fill="#71cfeb"> <path d="m591.84 1042.6-0.1207 8.3949 7.419 0.1067 0.12085-8.3949-7.4192-0.1067"/> <path d="m602.7 1042.8-0.0603 4.1974-0.0604 4.1974q3.7095 0.0535 7.419 0.1069 0.06045-4.1977 0.12095-8.3952-3.7097-0.0531-7.4193-0.1065"/> </g> <g fill="#ff1300"> <path d="m580.97 1052.3-0.0604 4.1975-0.0603 4.1977q3.7095 0.0532 7.4189 0.1067 0.06057-4.1975 0.12107-8.3951-3.7097-0.0532-7.4193-0.1068"/> </g> <g fill="#71cfeb"> <path d="m591.84 1052.4-0.1207 8.3952 7.419 0.1067 0.12095-8.395-7.4193-0.1069"/> <path d="m602.7 1052.6-0.06044 4.1974-0.0604 4.1975q3.7095 0.0534 7.419 0.1066 0.06045-4.1975 0.12095-8.395-3.7097-0.0533-7.4192-0.1065"/> </g> <g fill="#f7f297"> <path d="m541.62 1041.9-0.0605 4.1975-0.06033 4.1973q3.7095 0.0536 7.4189 0.1066 0.06056-4.197 0.1211-8.3945-3.7096-0.0537-7.4192-0.1069"/> <path d="m552.49 1042.1-0.12083 8.3951 7.4189 0.1069 0.1212-8.3954-7.4193-0.1066"/> <path d="m563.35 1042.3-0.0604 4.1974-0.0603 4.1975q3.7095 0.0536 7.4191 0.1069 0.06044-4.1973 0.12094-8.3949-3.7097-0.0535-7.4193-0.1069"/> <path d="m541.62 1051.8-0.0606 4.1973-0.0603 4.1976q3.7095 0.0534 7.419 0.1071 0.06055-4.1975 0.12115-8.3951-3.7097-0.0531-7.4192-0.1069"/> <path d="m552.49 1052-0.1208 8.395 7.419 0.1069 0.12125-8.395-7.4194-0.1069"/> <path d="m563.35 1052.1-0.06053 4.1976-0.0603 4.1974q3.7095 0.0533 7.4191 0.1071 0.06043-4.1975 0.12107-8.395-3.7097-0.0537-7.4193-0.1071"/> </g> <g fill="#3c464f" fill-opacity=".99608"> <path d="m613.29 1070.6h-49.311l-49.311-2e-4q0 2.6053 0 5.2103 49.311 6e-4 98.622 8e-4 0-2.6056 0-5.2109"/> </g> <g fill="#000509" fill-opacity=".99608"> <path d="m694.21 1123.9v2e-4 -2e-4 2e-4t0-2e-4"/> </g> <g> <path d="m752.36 858.6 34.003 120.72 61.051 7.6288-4.1524 9.6108-0.2284 0.08786-102.25-3.3332-15.311-13.616-30.599-107.86 57.402-13.226"/> </g> <g fill="#ffc4ac"> <path d="m738.58 960.01q5.5475-0.33156 7.305 5.92 1.811 4.9248 3.1471 27.222 1.1128-9.3799 2.3276-12.584 1.2434-3.5311 3.4358-3.5372 7.1244 1.2199 5.0048 14.385 4.7814-5.5148 7.1439-7.2296 2.638-2.0175 4.9412-1.963 2.7111 0.02875 4.1683 1.7446 0.70946 1.0179-1.4482 2.5941l42.643 4.8232q0.83934 8.5388-1.2741 12.308-1.8963 3.6643-9.1637 6.4555-24.502-5.8654-35.862-7.1321-5.844 0.7652-8.2501 1.534-1.2016 0.215-5.8326 2.6792-0.76 0.33506-1.6432 0.56376-2.2483 0.5224-4.7024 0.2417-2.2964-0.24485-4.4281-1.1164-0.656-0.14597-5.5028-3.0084-0.88306-0.45855-1.6428-0.70843-0.48807-0.34943-4.8167-0.57767-0.97132-0.173-1.5379-0.58725-2.3567-0.91415-2.5637-13.28-8.4656-1.0834-11.271-2.4651-3.2255-1.538-2.9624-4.1218 0.4365-2.3413 3.7241-3.1715 2.9816-0.80577 11.098-0.5153 0.6359-11.336 2.1519-14.573 1.5841-3.8504 5.7092-3.9004"/> </g> </g> </svg>