<?xml version="1.0" encoding="UTF-8"?>
<!DOCTYPE svg  PUBLIC '-//W3C//DTD SVG 1.1//EN'  'http://www.w3.org/Graphics/SVG/1.1/DTD/svg11.dtd'>
<svg enable-background="new 0 0 650 607" version="1.1" viewBox="0 0 650 607" xmlns="http://www.w3.org/2000/svg">
 <g opacity=".9">
  <path d="m47.205 216.44c-6.283-5.023-6.157-13.082 0.279-17.908l151.76-113.78c6.436-4.826 16.967-4.825 23.403 1e-3l151.72 113.78c6.435 4.826 6.56 12.884 0.276 17.907l-152.31 121.76c-6.283 5.023-16.564 5.022-22.847-1e-3l-152.28-121.76z" fill="#00daf3"/>
  <path d="m232.04 383.75c0-8.044 5.207-18.651 11.57-23.572l138.36-106.98c6.363-4.92 11.57-2.365 11.57 5.679v148.99c0 8.044-5.207 18.651-11.57 23.571l-138.36 106.98c-6.364 4.921-11.571 2.364-11.571-5.68v-148.99z" fill="#007ff3"/>
  <path d="m39.82 431.55c-6.329-4.966-11.506-15.61-11.506-23.654v-148.9c0-8.043 5.178-10.563 11.506-5.597l135.96 106.68c6.329 4.967 11.506 15.61 11.506 23.654v148.9c0 8.044-5.178 10.563-11.507 5.597l-135.96-106.68z" fill="#ff7f11"/>
 </g>
 <g opacity=".9">
  <path d="m348.61 330.77c-4.918-3.932-4.82-10.239 0.218-14.016l118.78-89.059c5.037-3.777 13.28-3.777 18.318 0l118.76 89.058c5.038 3.776 5.135 10.083 0.218 14.015l-119.22 95.304c-4.918 3.932-12.965 3.931-17.883-1e-3l-119.19-95.301z" fill="#00daf3"/>
  <path d="m493.28 461.72c0-6.296 4.075-14.599 9.057-18.45l108.3-83.732c4.98-3.852 9.057-1.851 9.057 4.445v116.62c0 6.297-4.076 14.6-9.057 18.45l-108.3 83.731c-4.981 3.851-9.057 1.851-9.057-4.446v-116.61z" fill="#007ff3"/>
  <path d="m342.83 499.13c-4.953-3.888-9.006-12.219-9.006-18.515v-116.55c0-6.296 4.053-8.268 9.006-4.381l106.42 83.496c4.954 3.887 9.006 12.218 9.006 18.515v116.55c0 6.296-4.052 8.268-9.006 4.381l-106.42-83.495z" fill="#ff7f11"/>
 </g>
 <g opacity=".9">
  <path d="m328.63 100.1c-4.229-3.381-4.144-8.805 0.188-12.054l102.15-76.59c4.333-3.248 11.422-3.248 15.754 0l102.13 76.589c4.332 3.248 4.415 8.673 0.187 12.054l-102.53 81.96c-4.229 3.381-11.149 3.381-15.379 0l-102.5-81.959z" fill="#00daf3"/>
  <path d="m453.05 212.71c0-5.415 3.506-12.555 7.789-15.867l93.134-72.01c4.282-3.312 7.787-1.592 7.787 3.823v100.29c0 5.415-3.505 12.555-7.788 15.867l-93.133 72.009c-4.283 3.313-7.789 1.592-7.789-3.823v-100.29z" fill="#007ff3"/>
  <path d="m323.66 244.89c-4.26-3.342-7.745-10.507-7.745-15.922v-100.23c0-5.415 3.485-7.11 7.745-3.768l91.517 71.808c4.261 3.342 7.746 10.507 7.746 15.922v100.23c0 5.415-3.485 7.11-7.746 3.769l-91.517-71.807z" fill="#ff7f11"/>
 </g>
</svg>
